<svg xmlns="http://www.w3.org/2000/svg" xmlns:xlink="http://www.w3.org/1999/xlink" width="43.441" height="49.924" viewBox="0 0 43.441 49.924">
  <defs>
    <linearGradient id="linear-gradient" x1="0.079" y1="1.356" x2="0.908" y2="-0.33" gradientUnits="objectBoundingBox">
      <stop offset="0.006" stop-color="#9f2d00"/>
      <stop offset="0.517" stop-color="#ffeedf"/>
      <stop offset="1" stop-color="#881e02"/>
    </linearGradient>
  </defs>
  <g id="Group_5828" data-name="Group 5828" transform="translate(0.5 0.683)">
    <path id="Path_31006" data-name="Path 31006" d="M-643.082,545.929h0a22.6,22.6,0,0,1-17.218-3.718l-.351-.279-.306-.333-.056.044-.064-.051-.33.361-.326.256a22.6,22.6,0,0,1-17.221,3.721l-3.285-.685v19.915c0,4.2,1.772,8.433,5.267,12.577,3.39,4.018,8.535,8.1,15.295,12.123l.659.392h0l.659-.392c6.759-4.026,11.9-8.1,15.294-12.123,3.495-4.144,5.267-8.375,5.267-12.577V545.243Zm-2.112,5.422v13.807c0,6-5.323,12.4-15.823,19.052-10.5-6.649-15.823-13.057-15.823-19.052V551.351c.764.064,1.51.094,2.239.094a28.259,28.259,0,0,0,13.585-3.572A28.022,28.022,0,0,0-645.194,551.351Z" transform="translate(682.238 -541.592)" stroke="#d48469" stroke-width="1" fill="url(#linear-gradient)"/>
    <path id="Subtraction_94" data-name="Subtraction 94" d="M15.824,37.566h0c-5.566-3.754-9.331-6.88-11.85-9.84C1.3,24.584,0,21.536,0,18.409V3.7c.73.066,1.483.1,2.239.1A26.853,26.853,0,0,0,15.824,0,26.843,26.843,0,0,0,29.409,3.8c.744,0,1.5-.034,2.238-.1V18.409c0,3.127-1.3,6.174-3.973,9.317-2.519,2.96-6.283,6.087-11.849,9.84Z" transform="translate(5.404 5.546)" stroke="#bd7b65" stroke-width="1" fill="url(#linear-gradient)"/>
    <g id="Star" transform="translate(14.842 15.888)">
      <g id="Group_5248" data-name="Group 5248" transform="translate(0 0)">
        <path id="Path_30988" data-name="Path 30988" d="M9.925,22.966l-3.54-2.215-3.54,2.215a.374.374,0,0,1-.561-.408L3.3,18.507.134,15.825a.374.374,0,0,1,.214-.66l4.128-.288L6.038,11a.39.39,0,0,1,.694,0l1.561,3.873,4.128.288a.374.374,0,0,1,.214.66L9.473,18.507l1.013,4.051a.374.374,0,0,1-.561.408Z" transform="translate(0 -10.792)" fill="#d48469"/>
      </g>
    </g>
  </g>
</svg>
