<svg xmlns="http://www.w3.org/2000/svg" width="16.664" height="16.692" viewBox="0 0 16.664 16.692">
  <g id="Group_34948" data-name="Group 34948" transform="translate(0)">
    <g id="Group_34551" data-name="Group 34551">
      <path id="Path_81057" data-name="Path 81057" d="M8.992,0c.634.136,1.284.221,1.9.416A8.309,8.309,0,1,1,7.2.074C7.354.052,7.511.025,7.669,0ZM1.28,8.329a7.05,7.05,0,1,0,7.062-7.05A7.057,7.057,0,0,0,1.28,8.329" transform="translate(0)"/>
      <path id="Path_81058" data-name="Path 81058" d="M127.411,66.792c0-.731-.007-1.462,0-2.193a.643.643,0,0,1,.641-.689.652.652,0,0,1,.647.685c0,.08,0,.16,0,.24,0,1.2.006,2.4,0,3.6a.721.721,0,0,0,.233.578c.71.691,1.4,1.4,2.107,2.1a.652.652,0,0,1,.19.685.526.526,0,0,1-.492.42.886.886,0,0,1-.568-.178q-1.3-1.248-2.547-2.549a.975.975,0,0,1-.2-.6c-.024-.7-.009-1.4-.009-2.1" transform="translate(-119.727 -60.059)"/>
    </g>
  </g>
</svg>
