<svg id="Group_34464" data-name="Group 34464" xmlns="http://www.w3.org/2000/svg" width="57.066" height="57.042" viewBox="0 0 57.066 57.042">
  <g id="Group_17348" data-name="Group 17348" transform="translate(0 0)">
    <g id="Group_17344" data-name="Group 17344" transform="translate(0 0)">
      <g id="Group_16362" data-name="Group 16362">
        <path id="Path_64183" data-name="Path 64183" d="M8.771,33.264a5.248,5.248,0,0,0-5.12,5.342A5.277,5.277,0,0,0,8.9,43.769c5.092.026,10.23.021,15.2.015h25.85a10.261,10.261,0,0,1,.03-10.521c-11.488-.021-26.325-.038-41.208,0" transform="translate(0.947 8.625)" fill="#ff0089"/>
        <path id="Path_64184" data-name="Path 64184" d="M54.205,49.364c-.18,0-.358-.009-.525-.019s-.256-.016-.354-.018H25.051c-4.979.006-10.124.011-15.187-.016H9.837A9.887,9.887,0,0,1,0,39.631,9.849,9.849,0,0,1,9.681,29.613c15.449-.039,31.063-.02,44.3.006a3.046,3.046,0,0,1,2.87,1.753l.047.2a4.048,4.048,0,0,1-.307,2.306l-.045.13a3.158,3.158,0,0,1-.776,1.161l.008-.006a.691.691,0,0,1-.062.079c-2.251,3.042-2.207,5.661.176,8.725l-2.286,1.778c-3.2-4.107-3.26-8.119-.191-12.261.116-.149.209-.257.307-.361l.217-.411a1.389,1.389,0,0,0,.073-.194l-.039,0c-13.234-.024-28.848-.044-44.265-.006A6.953,6.953,0,0,0,2.9,39.58a6.982,6.982,0,0,0,6.952,6.835h.02c5.064.029,10.2.021,15.179.015H53.307a4.5,4.5,0,0,1,.572.025l.185.009a4.632,4.632,0,0,0-.458-.707l2.286-1.78A4.3,4.3,0,0,1,57,47.344a2.585,2.585,0,0,1-2.8,2.02" transform="translate(0 7.678)" fill="#1e2663"/>
        <path id="Path_64185" data-name="Path 64185" d="M53.046,21.274v0a8.419,8.419,0,0,0-6.017-2.511c-5.542-.024-11.174-.019-16.625-.015h-8V16.864H52.928c.082,0,.166.006.252.013a1.675,1.675,0,0,0,.652-.038c.084-.028.175-.054.27-.082.5-.149,1.02-.3,1.157-.668a2.227,2.227,0,0,0-.345-1.668,4.884,4.884,0,0,0-.63-.882,6.426,6.426,0,0,1-.445-.567c-1.566-2.339-1.951-4.451-1.176-6.46a14.8,14.8,0,0,1,1.316-2.436c.311-.5.63-1.014.909-1.542.135-.252.557-1.134.3-1.69C54.954.365,54.123.128,53.668.062A9.686,9.686,0,0,0,52.013.017c-.228.006-.457.014-.684.014H39.659Q24.827.029,10,.034a8.423,8.423,0,1,0-.786,16.828c.236.011.472.013.709,0h.87v1.88H8.119c-1.688,0-3.433-.011-5.151.031-.455.011-1.34.263-1.49.724a2.7,2.7,0,0,0,.237,1.617l.044.126a1.863,1.863,0,0,0,.429.621,3.287,3.287,0,0,1,.228.268c2.611,3.562,2.557,6.849-.173,10.323-.081.1-.166.2-.252.3a5.557,5.557,0,0,0-.537.71A1.419,1.419,0,0,0,1.3,34.825a1.411,1.411,0,0,0,1.141.731,4.942,4.942,0,0,0,.807.028H36.228c1.087,0,2.158,0,3.236.008,1.044,0,2.1.006,3.168.006,1.544,0,3.1-.006,4.643-.031a8.409,8.409,0,0,0,5.772-14.291M5.314,12.2a5.356,5.356,0,0,1-.98-5.873A5.5,5.5,0,0,1,9.12,2.773a3.976,3.976,0,0,1,.458-.021H51.327c-2.343,4.954-2.343,5.668-.093,11.335H22.361V9.122c-.008-1.612-.4-2.006-1.989-2.015-2.251-.006-4.923-.011-7.675,0-1.4.008-1.825.436-1.834,1.834-.006,1.217,0,2.433,0,3.675l-.008.01v1.461A5.856,5.856,0,0,1,5.314,12.2M19.788,9.661V23.845c-.756-.581-1.452-1.064-2.084-1.621a1.484,1.484,0,0,0-2.095-.117,1.283,1.283,0,0,0-.136.139c-.6.529-1.26,1-2.015,1.586l0-14.169ZM51.966,30a5.409,5.409,0,0,1-4.935,2.854q-16.786.015-33.573.008H5.71c-.115,0-.229-.009-.368-.019,1.985-3.538,2.59-6.592.019-11.288h5.5c0,.358,0,.717-.008,1.076-.01,1.081-.019,2.2.033,3.3a3.481,3.481,0,0,0,.348,1.174c.069.162.139.324.2.486l.071.2.2-.079c.161-.058.327-.106.495-.155a3.691,3.691,0,0,0,1.12-.461c.817-.574,1.589-1.19,2.408-1.841.287-.229.579-.462.882-.7.281.22.559.442.838.662.788.63,1.6,1.277,2.442,1.863.429.3,1.281.743,1.756.5.5-.252.673-1.183.7-1.7.054-1.077.044-2.178.034-3.241,0-.378-.006-.748-.008-1.125l.042-.011a1.039,1.039,0,0,1,.224-.044q3.374,0,6.748-.009c5.853-.01,11.9-.021,17.852.026a5.487,5.487,0,0,1,4.763,2.828A5.626,5.626,0,0,1,51.966,30" transform="translate(0.308 -0.001)" fill="#1e2663"/>
        <path id="Path_64186" data-name="Path 64186" d="M17.512,22.326l-.34-.262c-.237-.183-.467-.355-.693-.524-.495-.37-.962-.719-1.4-1.106a1.282,1.282,0,0,0-1.809-.125,1.212,1.212,0,0,0-.144.146c-.416.365-.859.7-1.329,1.062-.222.169-.452.344-.691.532l-.341.267V7.5h6.748Zm-3.393-2.753a1.884,1.884,0,0,1,1.237.545c.427.378.888.72,1.375,1.084l.359.268V7.922h-5.9V21.454l.355-.271c.463-.354.9-.688,1.306-1.043a1.941,1.941,0,0,1,1.272-.567" transform="translate(2.793 1.946)" fill="#1e2663"/>
      </g>
    </g>
  </g>
</svg>
