<svg xmlns="http://www.w3.org/2000/svg" xmlns:xlink="http://www.w3.org/1999/xlink" width="20.529" height="15.915" viewBox="0 0 20.529 15.915">
  <defs>
    <clipPath id="clip-path">
      <rect id="Rectangle_19759" data-name="Rectangle 19759" width="20.529" height="15.915" transform="translate(0 0)" fill="none"/>
    </clipPath>
  </defs>
  <g id="Group_35020" data-name="Group 35020" transform="translate(0 0)">
    <g id="Group_35020-2" data-name="Group 35020" clip-path="url(#clip-path)">
      <path id="Path_81235" data-name="Path 81235" d="M20.526,4.448a2.677,2.677,0,0,0-.07-.6,2.6,2.6,0,0,0-2.573-1.993q-3.46,0-6.926,0h0a.683.683,0,0,1-.513-.2c-.255-.244-.517-.482-.777-.72L9.4.7A2.564,2.564,0,0,0,7.62,0H6.534Q4.577,0,2.62,0A2.608,2.608,0,0,0,0,2.643V13.27a2.738,2.738,0,0,0,.048.526,2.61,2.61,0,0,0,2.587,2.118H17.908a2.59,2.59,0,0,0,2.619-2.609q0-4.427,0-8.857M18.442,13.26a.515.515,0,0,1-.393.545,1.126,1.126,0,0,1-.238.016H2.693c-.456,0-.541-.255-.568-.34a.643.643,0,0,1-.031-.2q0-5.315,0-10.629a.508.508,0,0,1,.557-.556H7.6a.576.576,0,0,1,.425.167l1.044.961a2.64,2.64,0,0,0,1.852.724h2.061c1.612,0,3.227,0,4.839-.009a.586.586,0,0,1,.625.621c-.011,2.153-.01,4.305-.008,6.458Z" fill="#363636"/>
    </g>
  </g>
</svg>
