<svg xmlns="http://www.w3.org/2000/svg" xmlns:xlink="http://www.w3.org/1999/xlink" width="42.441" height="48.66" viewBox="0 0 42.441 48.66">
  <defs>
    <linearGradient id="linear-gradient" x1="0.068" y1="1.378" x2="0.786" gradientUnits="objectBoundingBox">
      <stop offset="0" stop-color="#f9df7b"/>
      <stop offset="0.089" stop-color="#e4c059"/>
      <stop offset="0.168" stop-color="#d6ad44"/>
      <stop offset="0.594" stop-color="#e3bf58"/>
      <stop offset="0.69" stop-color="#f5da75"/>
      <stop offset="0.704" stop-color="#f6db77"/>
      <stop offset="1" stop-color="#c49328"/>
    </linearGradient>
    <linearGradient id="linear-gradient-2" x1="0.068" y1="1.378" x2="0.899" y2="-0.311" gradientUnits="objectBoundingBox">
      <stop offset="0" stop-color="#f9df7b"/>
      <stop offset="0.008" stop-color="#f6db77"/>
      <stop offset="0.089" stop-color="#e4c059"/>
      <stop offset="0.168" stop-color="#d6ad44"/>
      <stop offset="0.245" stop-color="#cea137"/>
      <stop offset="0.316" stop-color="#e2c47f"/>
      <stop offset="0.406" stop-color="#e3b958"/>
      <stop offset="0.499" stop-color="#e8c15b"/>
      <stop offset="0.594" stop-color="#f5d783"/>
      <stop offset="0.678" stop-color="#f5da75"/>
      <stop offset="0.764" stop-color="#ffea98"/>
      <stop offset="1" stop-color="#c49328"/>
    </linearGradient>
  </defs>
  <g id="Group_5829" data-name="Group 5829" transform="translate(0 0)">
    <path id="Path_30987" data-name="Path 30987" d="M-643.082,545.929h0a22.6,22.6,0,0,1-17.218-3.718l-.351-.279-.306-.333-.056.044-.064-.051-.33.361-.326.256a22.6,22.6,0,0,1-17.221,3.721l-3.285-.685v19.915c0,4.2,1.772,8.433,5.267,12.577,3.39,4.018,8.535,8.1,15.295,12.123l.659.392h0l.659-.392c6.759-4.026,11.9-8.1,15.294-12.123,3.495-4.144,5.267-8.375,5.267-12.577V545.243Zm-2.112,5.422v13.807c0,6-5.323,12.4-15.823,19.052-10.5-6.649-15.823-13.057-15.823-19.052V551.351c.764.064,1.51.094,2.239.094a28.259,28.259,0,0,0,13.585-3.572A28.022,28.022,0,0,0-645.194,551.351Z" transform="translate(682.238 -541.591)" fill="url(#linear-gradient)"/>
    <path id="Subtraction_92" data-name="Subtraction 92" d="M15.824,35.272h0c-5.566-3.524-9.331-6.46-11.85-9.239C1.3,23.082,0,20.221,0,17.285V3.476c.73.062,1.483.095,2.239.095A28.149,28.149,0,0,0,15.824,0,28.139,28.139,0,0,0,29.409,3.57c.744,0,1.5-.032,2.238-.094V17.285c0,2.936-1.3,5.8-3.973,8.748-2.519,2.779-6.283,5.715-11.849,9.239Z" transform="translate(5.404 6.694)" stroke="#d8a600" stroke-width="1" fill="url(#linear-gradient-2)"/>
    <g id="Star" transform="translate(14.843 15.889)">
      <g id="Group_5248" data-name="Group 5248" transform="translate(0 0)">
        <path id="Path_30988" data-name="Path 30988" d="M9.925,22.966l-3.54-2.215-3.54,2.215a.374.374,0,0,1-.561-.408L3.3,18.507.134,15.825a.374.374,0,0,1,.214-.66l4.128-.288L6.038,11a.39.39,0,0,1,.694,0l1.561,3.873,4.128.288a.374.374,0,0,1,.214.66L9.473,18.507l1.013,4.051a.374.374,0,0,1-.561.408Z" transform="translate(0 -10.792)" fill="#8a6d00"/>
      </g>
    </g>
  </g>
</svg>
