<svg xmlns="http://www.w3.org/2000/svg" xmlns:xlink="http://www.w3.org/1999/xlink" width="14.946" height="20.701" viewBox="0 0 14.946 20.701">
  <defs>
    <clipPath id="clip-path">
      <rect id="Rectangle_19758" data-name="Rectangle 19758" width="14.946" height="20.701" transform="translate(0 0.001)" fill="none"/>
    </clipPath>
  </defs>
  <g id="Group_35018" data-name="Group 35018" transform="translate(0 -0.001)">
    <g id="Group_35019" data-name="Group 35019" clip-path="url(#clip-path)">
      <path id="Path_81231" data-name="Path 81231" d="M14.837,5.988a6.984,6.984,0,0,0-1.1-2.711A7.489,7.489,0,0,0,8.028.02a7.832,7.832,0,0,0-1.915.1A7.514,7.514,0,0,0,3.089,1.371a7.059,7.059,0,0,0-1.241,10.6,3.344,3.344,0,0,1,.236.292,5.8,5.8,0,0,1,.579.99,12.634,12.634,0,0,1,.928,2.823l.152.584.343.084.168.021H10.73l.246-.051v0l.337-.234.05-.761a2.994,2.994,0,0,1,.08-.648,5.2,5.2,0,0,1,.391-1.112,9.6,9.6,0,0,1,1.38-2.117,7.123,7.123,0,0,0,1.706-4.028,6.846,6.846,0,0,0-.082-1.825M9.723,13.28A7.152,7.152,0,0,0,9.3,14.566h-3.8c-.1-.369-.221-.732-.352-1.092a11.488,11.488,0,0,0-.853-1.86,7.075,7.075,0,0,0-.612-.9c-.057-.072-.119-.141-.181-.21A4.924,4.924,0,0,1,2.35,8.39a4.588,4.588,0,0,1-.132-1.515,4.834,4.834,0,0,1,1.9-3.516A5.223,5.223,0,0,1,6.525,2.288,5.58,5.58,0,0,1,7.479,2.2a4.866,4.866,0,0,1,.5.025A5.269,5.269,0,0,1,11.268,3.75a4.862,4.862,0,0,1,1.374,2.513,4.646,4.646,0,0,1,.084,1.3,4.874,4.874,0,0,1-1.189,2.848A11.548,11.548,0,0,0,9.723,13.28" fill="#363636"/>
      <path id="Path_81232" data-name="Path 81232" d="M7.45,18.956H4.893l-.153,0a.69.69,0,0,1,0-1.377c.042,0,.085,0,.127,0h5.178a1.072,1.072,0,0,1,.24.021.688.688,0,0,1,0,1.34.917.917,0,0,1-.189.018c-.169,0-.339,0-.509,0H7.45" fill="#363636"/>
      <path id="Path_81233" data-name="Path 81233" d="M7.454,19.319H9.4c.05,0,.1,0,.152,0a.689.689,0,0,1,.058,1.362,1.136,1.136,0,0,1-.164.015H5.453a.677.677,0,0,1-.644-.377.686.686,0,0,1,.547-1c.051,0,.1,0,.152,0H7.454" fill="#363636"/>
      <path id="Path_81234" data-name="Path 81234" d="M6.721,11.412l-2.8-2.8L5.235,7.3,6.721,8.785,10.35,5.156l1.314,1.313Z" fill="#363636"/>
    </g>
  </g>
</svg>
