<svg id="Group_35011" data-name="Group 35011" xmlns="http://www.w3.org/2000/svg" xmlns:xlink="http://www.w3.org/1999/xlink" width="34.088" height="34.128" viewBox="0 0 38.088 38.128">
  <defs>
    <clipPath id="clip-path">
      <rect id="Rectangle_19754" data-name="Rectangle 19754" width="34.088" height="34.128" fill="none"/>
    </clipPath>
  </defs>
  <g id="Group_35011-2" data-name="Group 35011" clip-path="url(#clip-path)">
    <path id="Path_81215" data-name="Path 81215" d="M116.771,98.412c.337.347.632.644.915.952a.312.312,0,0,1,.058.236,16.513,16.513,0,0,1-4.106,8.271,16.847,16.847,0,0,1-8.873,5.077.474.474,0,0,1-.107-.023l.956-.84-1.214-1.111c.607-.184,1.154-.336,1.692-.516a14.186,14.186,0,0,0,5.228-3.147,14.593,14.593,0,0,0,4.115-6.741,1.828,1.828,0,0,0,.1-.388,2.045,2.045,0,0,1,.828-1.313c.132-.132.252-.277.413-.457" transform="translate(-82.27 -77.551)"/>
    <path id="Path_81216" data-name="Path 81216" d="M13.288,27.416c-.284-.3-.577-.6-.854-.916a.348.348,0,0,1-.061-.262,16.544,16.544,0,0,1,4.562-8.731,15,15,0,0,1,2.752-2.242c.693-.429,1.432-.785,2.157-1.159a13.648,13.648,0,0,1,3.318-1.153.48.48,0,0,1,.256,0l-.877.79,1.177,1.086-.056.086c-.3.079-.592.155-.885.238A14.731,14.731,0,0,0,14.735,25.1a1.159,1.159,0,0,0-.074.256,3.005,3.005,0,0,1-1.374,2.065" transform="translate(-9.747 -10.194)"/>
    <path id="Path_81217" data-name="Path 81217" d="M98.526,13.368c.315-.307.617-.608.931-.9a.318.318,0,0,1,.24-.045,16.364,16.364,0,0,1,7.078,3.113,16.613,16.613,0,0,1,5,6.14,16.307,16.307,0,0,1,1.247,3.689.864.864,0,0,1-.017.158l-.839-.963-1.118,1.2c-.155-.533-.273-1.013-.432-1.479a14.462,14.462,0,0,0-8.1-8.873,27.438,27.438,0,0,0-2.679-.885.692.692,0,0,1-.264-.113c-.347-.333-.683-.677-1.053-1.048" transform="translate(-77.641 -9.788)"/>
    <path id="Path_81218" data-name="Path 81218" d="M12.816,104.7l.832.938,1.1-1.192c.235.739.421,1.426.67,2.089a14.716,14.716,0,0,0,9.362,8.827c.331.1.667.2,1.007.267a1.2,1.2,0,0,1,.665.358c.262.279.55.533.865.833-.338.326-.639.625-.953.911a.317.317,0,0,1-.239.053,15.215,15.215,0,0,1-3.182-.91,16.693,16.693,0,0,1-10.151-12.059.526.526,0,0,1,.022-.113" transform="translate(-10.081 -82.302)"/>
    <path id="Path_81219" data-name="Path 81219" d="M78.443,3.573,82,0l1.283,1.277L80.963,3.563l2.39,2.369L82.06,7.207,78.443,3.573" transform="translate(-61.815)"/>
    <path id="Path_81220" data-name="Path 81220" d="M145.788,82.02l3.6-3.591,3.59,3.6L151.7,83.242l-2.253-2.3-2.366,2.408-1.289-1.334" transform="translate(-114.885 -61.804)"/>
    <path id="Path_81221" data-name="Path 81221" d="M3.56,83.089,0,79.524l1.27-1.235,2.268,2.3L5.907,78.2l1.27,1.291-3.618,3.6" transform="translate(0 -61.625)"/>
    <path id="Path_81222" data-name="Path 81222" d="M79.412,152.975l-1.246-1.285,2.318-2.3-2.413-2.351,1.3-1.3,3.633,3.636-3.594,3.6" transform="translate(-61.522 -114.847)"/>
  </g>
</svg>
