<svg xmlns="http://www.w3.org/2000/svg" width="19.64" height="19.64" viewBox="0 0 19.64 19.64">
  <g id="Group_34941" data-name="Group 34941" transform="translate(0 0)">
    <g id="Group_34943" data-name="Group 34943" transform="translate(0 0)">
      <path id="Path_81200" data-name="Path 81200" d="M27.269,6.11c-.085.35-.157.7-.256,1.05a4.947,4.947,0,0,1-1.2,2.1c-1.01,1.046-2.049,2.063-3.078,3.091a2.7,2.7,0,0,1-.233.176c-.374-.377-.761-.742-1.108-1.142-.05-.058.047-.319.145-.419C22.385,10.1,23.234,9.244,24.1,8.4a3.814,3.814,0,0,0,1.33-2.962,3.548,3.548,0,0,0-2.209-3.281,3.37,3.37,0,0,0-3.792.521c-1.065.92-2.032,1.955-3.015,2.966-.306.314-.51.356-.795,0-.253-.315-.776-.61-.761-.891.017-.325.481-.637.772-.934.671-.686,1.357-1.357,2.032-2.04A5.538,5.538,0,0,1,21.046.06.35.35,0,0,0,21.158,0h1.135a1.9,1.9,0,0,0,.246.074,5.306,5.306,0,0,1,4.133,3.017,12.731,12.731,0,0,1,.6,1.884Z" transform="translate(-7.629 0)" fill="#6f6f6f"/>
      <path id="Path_81201" data-name="Path 81201" d="M0,21.124c.068-.294.125-.591.205-.881a5.494,5.494,0,0,1,1.4-2.426c.939-.953,1.9-1.889,2.832-2.845.225-.23.384-.249.6,0a7.277,7.277,0,0,0,.711.707c.253.22.215.384-.009.605-.964.949-1.935,1.892-2.864,2.874A3.671,3.671,0,0,0,4.5,25.251a3.556,3.556,0,0,0,3.683-.972q1.391-1.355,2.742-2.75c.249-.255.429-.284.671-.005.227.264.483.5.735.745.152.146.191.272.022.438-1.1,1.08-2.169,2.192-3.3,3.24a4.784,4.784,0,0,1-2.744,1.217.951.951,0,0,0-.2.071H4.976a1.316,1.316,0,0,0-.2-.069A5.419,5.419,0,0,1,.288,23.427,10.8,10.8,0,0,1,0,22.258V21.124" transform="translate(0 -7.594)" fill="#6f6f6f"/>
      <path id="Path_81204" data-name="Path 81204" d="M19.968,13.976a3.172,3.172,0,0,1-.219.279Q17.005,17,14.26,19.751c-.2.205-.364.25-.576.015a9.649,9.649,0,0,0-.741-.739c-.234-.208-.2-.362.009-.571q2.755-2.736,5.493-5.491c.232-.233.389-.234.6.006.231.261.492.5.734.746a2.356,2.356,0,0,1,.186.259" transform="translate(-6.562 -6.566)" fill="#6f6f6f"/>
    </g>
  </g>
</svg>
