<svg xmlns="http://www.w3.org/2000/svg" width="15.529" height="17.444" viewBox="0 0 15.529 17.444">
  <g id="Group_35016" data-name="Group 35016" transform="translate(0 0)">
    <g id="Group_35017" data-name="Group 35017" transform="translate(0 0)">
      <path id="Path_81224" data-name="Path 81224" d="M0,9.526H3.468v1.907H1.988v11.1H13.7V11.869H12.212V9.54h1.014c.591,0,1.182-.015,1.772.009a1.906,1.906,0,0,1,.53.186c0,7.653,0,6.943-.011,14.6,0,.131-.049-.165-.049.153-.319,0-.525.086-.713.086-6.541-.009-7.541-.008-14.082-.009-.225,0-.45-.014-.675-.022Z" transform="translate(0 -7.126)" fill="#363636"/>
      <path id="Path_81225" data-name="Path 81225" d="M20.943,0a2.207,2.207,0,0,1,1.585,1.784c.873,0,.26.015,1.11-.007.393-.01.564.088.547.524-.034.833-.023,1.669,0,2.5.008.348-.127.452-.457.451-2.989-.007-3.05-.008-6.039,0-.322,0-.419-.116-.413-.429.016-.851.023-1.7,0-2.555-.012-.407.156-.5.525-.492.642.022-.178,0,.465.01.27.005.431-.026.51-.355A2.077,2.077,0,0,1,20.213,0ZM20.6,1.356a.9.9,0,0,0-.9.884.937.937,0,0,0,.876.912,1.008,1.008,0,0,0,.873-.874.892.892,0,0,0-.853-.922" transform="translate(-12.918 0)" fill="#363636"/>
      <rect id="Rectangle_19755" data-name="Rectangle 19755" width="8.154" height="1.777" transform="translate(3.97 7.95)" fill="#363636"/>
      <rect id="Rectangle_19756" data-name="Rectangle 19756" width="8.154" height="1.777" transform="translate(3.97 11.424)" fill="#363636"/>
    </g>
  </g>
</svg>
