<svg xmlns="http://www.w3.org/2000/svg" width="33.685" height="33.643" viewBox="0 0 33.685 33.643">
  <g id="Group_35010" data-name="Group 35010" transform="translate(0 0)">
    <g id="Group_35159" data-name="Group 35159" transform="translate(0 0)">
      <path id="Path_81212" data-name="Path 81212" d="M15.259,33.643c-.682-.133-1.371-.24-2.046-.4A16.787,16.787,0,0,1,2.342,25.37c-.11-.185-.286-.432-.237-.588a2.677,2.677,0,0,1,.581-1.221c.341-.305,1.095.133,1.491.656a26.786,26.786,0,0,0,2.641,3.336A14.717,14.717,0,1,0,19.771,2.381,14.82,14.82,0,0,0,4.138,8.88a12.482,12.482,0,0,0-1.738,4.9c.234-.133.438-.247.643-.364.893-.513,1.78-1.036,2.676-1.54a1.126,1.126,0,0,1,1.585.211,1.21,1.21,0,0,1-.4,1.572c-1.751,1.085-3.514,2.15-5.314,3.151A1.068,1.068,0,0,1,0,15.7,16.31,16.31,0,0,1,14.161.188,16.706,16.706,0,0,1,32.24,10.117a33.067,33.067,0,0,1,1.315,4.726c.055.208.088.422.13.637v2.631c-.12.708-.2,1.429-.374,2.124-1.647,6.727-5.791,11.053-12.476,12.914-.75.208-1.523.331-2.287.494Z" transform="translate(0 0)" fill="#1a73e8"/>
      <path id="Path_81214" data-name="Path 81214" d="M6.844,7.422c0,1.338-.029,2.676.019,4.011a2.251,2.251,0,0,0,.39,1.186c1.254,1.718,2.559,3.4,3.842,5.093a1.116,1.116,0,0,1-.1,1.721c-.455.361-1.091.195-1.579-.442-1.449-1.9-2.9-3.8-4.313-5.723a1.975,1.975,0,0,1-.351-1.082c-.029-2.959-.019-5.921-.016-8.88,0-.7.516-1.371,1.056-1.367A1.239,1.239,0,0,1,6.86,3.277c-.062,1.38-.016,2.764-.016,4.144" transform="translate(10.644 4.359)" fill="#1a73e8"/>
    </g>
  </g>
</svg>
