<svg xmlns="http://www.w3.org/2000/svg" width="34.39" height="33.075" viewBox="0 0 34.39 33.075">
  <g id="Group_35013" data-name="Group 35013" transform="translate(0.3 0.341)">
    <g id="Group_35014" data-name="Group 35014">
      <path id="Path_81223" data-name="Path 81223" d="M25.84,32.434a9.416,9.416,0,0,1-1.224-.441q-3.61-1.874-7.2-3.792a.939.939,0,0,0-1.014-.017q-3.655,1.961-7.341,3.864A2.3,2.3,0,0,1,5.8,31.006a2.641,2.641,0,0,1-.19-1.38c.436-2.784.92-5.561,1.409-8.336a.763.763,0,0,0-.246-.783Q3.77,17.6.791,14.671a2.309,2.309,0,0,1,.1-3.565,3.594,3.594,0,0,1,1.555-.569c2.662-.421,5.33-.8,8-1.171a.669.669,0,0,0,.581-.43q1.838-3.749,3.695-7.488A2.346,2.346,0,0,1,17.7.149a2.421,2.421,0,0,1,1.379,1.309c1.209,2.468,2.429,4.93,3.636,7.4a.807.807,0,0,0,.7.521c2.773.386,5.54.811,8.311,1.215a2.213,2.213,0,0,1,1.923,1.587,2.266,2.266,0,0,1-.62,2.469q-2.931,2.867-5.883,5.712a1.063,1.063,0,0,0-.36,1.1c.494,2.685.945,5.377,1.4,8.07a2.447,2.447,0,0,1-2.344,2.9M6.569,29.819a1.365,1.365,0,0,0,2.066,1.33c2.576-1.343,5.151-2.69,7.71-4.066a1.021,1.021,0,0,1,1.1,0c2.564,1.368,5.142,2.708,7.71,4.069a1.329,1.329,0,0,0,1.535-.084,1.345,1.345,0,0,0,.509-1.41c-.494-2.881-.977-5.765-1.5-8.641a.927.927,0,0,1,.316-.959c2.1-2.017,4.171-4.057,6.26-6.083a1.362,1.362,0,0,0,.424-1.485,1.32,1.32,0,0,0-1.171-.926c-2.842-.408-5.679-.844-8.524-1.23a1.2,1.2,0,0,1-1.057-.756c-1.22-2.539-2.483-5.058-3.723-7.587a1.434,1.434,0,0,0-1.364-.985,1.455,1.455,0,0,0-1.308.986c-1.26,2.579-2.546,5.145-3.8,7.729a.955.955,0,0,1-.833.589q-4.186.582-8.368,1.2a3,3,0,0,0-.717.166,1.334,1.334,0,0,0-.328,2.3q3.151,3.1,6.325,6.168a.765.765,0,0,1,.259.783c-.251,1.35-.473,2.706-.7,4.059-.282,1.649-.563,3.3-.825,4.838" transform="translate(0 0.001)" stroke="#000" stroke-width="0.6"/>
    </g>
  </g>
</svg>
