<svg id="Group_34543" data-name="Group 34543" xmlns="http://www.w3.org/2000/svg" width="14.25" height="13.536" viewBox="0 0 14.25 13.536">
  <g id="Group_34541" data-name="Group 34541">
    <path id="Path_81162" data-name="Path 81162" d="M11.5,13.535,8.36,11.888c-.346-.182-.7-.357-1.037-.55a.386.386,0,0,0-.424,0c-1.335.712-2.676,1.412-4.015,2.116-.044.023-.09.044-.175.086.08-.476.152-.916.227-1.354.19-1.113.377-2.227.577-3.338a.355.355,0,0,0-.127-.362Q1.771,6.918.162,5.347A1.274,1.274,0,0,0,0,5.231l.028-.065c.352-.053.7-.108,1.056-.159,1.2-.176,2.41-.355,3.616-.522a.358.358,0,0,0,.308-.232Q5.991,2.245,6.984.242C7.02.171,7.058.1,7.111,0l.833,1.687c.424.86.851,1.72,1.271,2.582a.341.341,0,0,0,.295.216c1.491.21,2.98.431,4.47.649.064.009.128.023.193.035l.078.092a.79.79,0,0,0-.216.106C12.963,6.4,11.9,7.448,10.826,8.486a.356.356,0,0,0-.123.364c.261,1.475.512,2.952.764,4.429.012.071.016.144.029.256" fill="#3c8d40"/>
  </g>
</svg>
