<svg id="Group_34964" data-name="Group 34964" xmlns="http://www.w3.org/2000/svg" width="20.918" height="19.87" viewBox="0 0 20.918 19.87">
  <g id="Group_34541" data-name="Group 34541">
    <path id="Path_81162" data-name="Path 81162" d="M16.876,19.869l-4.6-2.418c-.508-.267-1.022-.524-1.522-.807a.567.567,0,0,0-.623-.007c-1.96,1.045-3.928,2.073-5.894,3.107-.065.034-.132.065-.257.127.117-.7.223-1.344.333-1.988.279-1.634.553-3.269.848-4.9a.521.521,0,0,0-.186-.532Q2.6,10.155.238,7.849A1.87,1.87,0,0,0,0,7.68l.041-.1c.517-.078,1.033-.158,1.551-.234,1.769-.258,3.537-.521,5.308-.766a.526.526,0,0,0,.452-.34Q8.795,3.3,10.253.356c.052-.105.109-.209.186-.356l1.223,2.476C12.285,3.739,12.91,5,13.527,6.266a.5.5,0,0,0,.433.317c2.189.308,4.375.632,6.562.952.095.014.188.034.283.051l.114.135a1.16,1.16,0,0,0-.316.156c-1.572,1.524-3.137,3.056-4.71,4.58a.523.523,0,0,0-.18.534c.384,2.166.751,4.334,1.122,6.5.018.1.024.211.042.376" fill="#3c8d40"/>
  </g>
</svg>
