<svg xmlns="http://www.w3.org/2000/svg" xmlns:xlink="http://www.w3.org/1999/xlink" width="16.622" height="16.621" viewBox="0 0 16.622 16.621">
  <defs>
    <clipPath id="clip-path">
      <path id="Path_81166" data-name="Path 81166" d="M1.441,7.666a7,7,0,1,0,7-7,7,7,0,0,0-7,7" fill="none"/>
    </clipPath>
  </defs>
  <g id="Group_34552" data-name="Group 34552" transform="translate(0)">
    <g id="Group_34555" data-name="Group 34555">
      <g id="Group_34558" data-name="Group 34558">
        <path id="Path_81163" data-name="Path 81163" d="M9,0c.634.136,1.284.221,1.9.416A8.309,8.309,0,1,1,7.212.074C7.366.052,7.523.025,7.681,0ZM1.292,8.329a7.05,7.05,0,1,0,7.062-7.05,7.049,7.049,0,0,0-7.062,7.05"/>
      </g>
    </g>
    <g id="Group_34557" data-name="Group 34557">
      <g id="Group_34556" data-name="Group 34556" clip-path="url(#clip-path)">
        <path id="Path_81164" data-name="Path 81164" d="M8.441,8.62a2.5,2.5,0,1,1,2.5-2.5,2.5,2.5,0,0,1-2.5,2.5m0-3.7a1.2,1.2,0,1,0,1.2,1.2,1.2,1.2,0,0,0-1.2-1.2"/>
        <path id="Path_81165" data-name="Path 81165" d="M8.441,17.621a4.775,4.775,0,0,1-4.5-5,4.776,4.776,0,0,1,4.5-5,4.776,4.776,0,0,1,4.5,5,4.775,4.775,0,0,1-4.5,5m0-8.7a3.482,3.482,0,0,0-3.2,3.7,3.48,3.48,0,0,0,3.2,3.7,3.48,3.48,0,0,0,3.2-3.7,3.482,3.482,0,0,0-3.2-3.7"/>
      </g>
    </g>
  </g>
</svg>
