<svg xmlns="http://www.w3.org/2000/svg" width="30.502" height="30.487" viewBox="0 0 30.502 30.487">
  <g id="Group_34464" data-name="Group 34464" transform="translate(0.5 0.5)">
    <g id="Group_17348" data-name="Group 17348" transform="translate(0 0)">
      <g id="Group_17344" data-name="Group 17344" transform="translate(0 0)">
        <g id="Group_16362" data-name="Group 16362">
          <path id="Path_64183" data-name="Path 64183" d="M6.3,33.253a2.713,2.713,0,0,0-2.647,2.761,2.728,2.728,0,0,0,2.714,2.669c2.632.014,5.288.011,7.856.008H27.584a5.3,5.3,0,0,1,.016-5.438c-5.939-.011-13.608-.02-21.3,0" transform="translate(-1.274 -11.599)" fill="#1a73e8" stroke="rgba(0,0,0,0)" stroke-width="1"/>
          <path id="Path_64184" data-name="Path 64184" d="M28.021,39.812c-.093,0-.185,0-.271-.01s-.132-.008-.183-.009H12.95c-2.574,0-5.233.006-7.851-.008H5.085a5.111,5.111,0,0,1-5.084-5A5.091,5.091,0,0,1,5,29.6c7.986-.02,16.058-.01,22.9,0a1.574,1.574,0,0,1,1.484.906l.024.1a2.093,2.093,0,0,1-.159,1.192l-.023.067a1.633,1.633,0,0,1-.4.6l0,0a.357.357,0,0,1-.032.041,3.281,3.281,0,0,0,.091,4.51l-1.182.919a4.743,4.743,0,0,1-.1-6.338c.06-.077.108-.133.159-.187l.112-.212a.718.718,0,0,0,.038-.1l-.02,0c-6.841-.012-14.912-.023-22.882,0A3.594,3.594,0,0,0,1.5,34.754a3.609,3.609,0,0,0,3.594,3.533H5.1c2.618.015,5.274.011,7.847.008H27.556a2.328,2.328,0,0,1,.3.013l.1,0a2.394,2.394,0,0,0-.237-.365l1.182-.92a2.222,2.222,0,0,1,.575,1.74,1.336,1.336,0,0,1-1.447,1.044" transform="translate(0 -10.325)" fill="#1e2663" stroke="rgba(0,0,0,0)" stroke-width="1"/>
          <path id="Path_64185" data-name="Path 64185" d="M27.994,11v0a4.352,4.352,0,0,0-3.11-1.3c-2.865-.012-5.776-.01-8.594-.008H12.156V8.718H27.933c.042,0,.086,0,.13.007a.866.866,0,0,0,.337-.02c.044-.014.09-.028.139-.042.26-.077.527-.156.6-.345a1.151,1.151,0,0,0-.178-.862A2.524,2.524,0,0,0,28.634,7a3.322,3.322,0,0,1-.23-.293A3.508,3.508,0,0,1,27.8,3.368a7.652,7.652,0,0,1,.68-1.259c.161-.26.326-.524.47-.8.07-.13.288-.586.154-.874-.12-.249-.55-.371-.785-.406A5.007,5.007,0,0,0,27.46.009c-.118,0-.236.007-.354.007H21.073q-7.667,0-15.331,0a4.354,4.354,0,1,0-.406,8.7c.122.006.244.007.367,0h.45v.972H4.769c-.872,0-1.775-.006-2.663.016-.235.006-.693.136-.77.374a1.4,1.4,0,0,0,.122.836l.023.065A.963.963,0,0,0,1.7,11.3a1.7,1.7,0,0,1,.118.139,3.957,3.957,0,0,1-.089,5.336c-.042.053-.086.105-.13.158a2.872,2.872,0,0,0-.277.367.733.733,0,0,0-.081.7.729.729,0,0,0,.59.378,2.555,2.555,0,0,0,.417.014H19.3c.562,0,1.115,0,1.673,0,.54,0,1.087,0,1.637,0,.8,0,1.6,0,2.4-.016A4.347,4.347,0,0,0,27.994,11M3.319,6.306A2.769,2.769,0,0,1,2.813,3.27,2.841,2.841,0,0,1,5.287,1.434a2.055,2.055,0,0,1,.237-.011H27.105c-1.211,2.561-1.211,2.93-.048,5.86H12.132V4.716c0-.833-.206-1.037-1.028-1.042-1.163,0-2.545-.006-3.968,0-.723,0-.943.225-.948.948,0,.629,0,1.258,0,1.9l0,.005v.755a3.027,3.027,0,0,1-2.865-.977M10.8,4.995v7.332c-.391-.3-.751-.55-1.078-.838a.767.767,0,0,0-1.083-.061.664.664,0,0,0-.07.072c-.311.273-.651.515-1.042.82l0-7.325ZM27.435,15.508a2.8,2.8,0,0,1-2.551,1.475q-8.677.008-17.355,0h-4c-.059,0-.118,0-.19-.01a5.236,5.236,0,0,0,.01-5.835H6.185c0,.185,0,.37,0,.556-.005.559-.01,1.137.017,1.706a1.8,1.8,0,0,0,.18.607c.036.084.072.167.1.251l.036.1.1-.041c.083-.03.169-.055.256-.08a1.908,1.908,0,0,0,.579-.238c.423-.3.822-.615,1.245-.952.148-.118.3-.239.456-.36l.433.342c.408.326.829.66,1.262.963.222.155.662.384.908.26s.348-.611.361-.876c.028-.557.023-1.126.018-1.675,0-.2,0-.387,0-.581l.021-.006a.537.537,0,0,1,.116-.023q1.744,0,3.489,0c3.026-.005,6.153-.011,9.228.014a2.837,2.837,0,0,1,2.462,1.462,2.908,2.908,0,0,1-.014,2.938" transform="translate(-0.413 -0.001)" fill="#1e2663" stroke="rgba(0,0,0,0)" stroke-width="1"/>
          <path id="Path_64186" data-name="Path 64186" d="M14.252,15.166l-.176-.135c-.122-.094-.242-.184-.358-.271-.256-.191-.5-.372-.725-.572a.663.663,0,0,0-.935-.064.626.626,0,0,0-.074.076c-.215.189-.444.363-.687.549-.115.087-.234.178-.357.275l-.176.138V7.5h3.489ZM12.5,13.742a.974.974,0,0,1,.639.282c.221.2.459.372.711.561l.186.139v-7H10.982v7l.184-.14c.24-.183.466-.355.675-.539a1,1,0,0,1,.658-.293" transform="translate(-3.756 -2.618)" fill="#1e2663" stroke="rgba(0,0,0,0)" stroke-width="1"/>
        </g>
      </g>
    </g>
  </g>
</svg>
