<svg version="1.2" xmlns="http://www.w3.org/2000/svg" viewBox="0 0 21 21" width="21" height="21"><style>.a{fill:#fff}</style><path  d="m10.3 20.6c-5.5 0-10-4.5-10-10 0-5.6 4.5-10 10-10 5.6 0 10.1 4.4 10.1 10 0 5.5-4.5 10-10.1 10z"/><path class="a" d="m17.9 13.1q-0.1 0.3-0.2 0.5-0.3 0.7-0.7 1.3-0.4 0.5-0.9 1-0.5 0.5-1.1 0.9-0.5 0.4-1.2 0.7-0.2 0.1-0.4 0.2-0.3 0-0.5 0.1-0.2 0.1-0.5 0.1-0.2 0.1-0.5 0.1-0.2 0-0.4 0-0.2 0-0.4 0-0.2 0.1-0.4 0-0.2 0-0.4 0-0.6 0-1.2-0.2-0.5-0.1-1.1-0.4-0.5-0.2-1-0.5-0.5-0.4-0.9-0.8-0.3-0.3-0.6-0.6-0.3-0.3-0.6-0.7-0.2-0.4-0.4-0.8-0.2-0.4-0.3-0.8-0.1-0.2-0.2-0.4 0-0.2-0.1-0.4 0-0.2 0-0.4-0.1-0.3-0.1-0.5 0-0.5 0-1.1 0-0.5 0.1-1.1 0.2-0.5 0.4-1 0.2-0.6 0.5-1 0.1-0.3 0.3-0.5 0.1-0.2 0.3-0.4 0.2-0.2 0.3-0.4 0.2-0.2 0.4-0.4h0.1q-0.2 0.6-0.3 1.2-0.1 0.7 0 1.4 0 0.6 0.2 1.3 0.2 0.6 0.4 1.2 0.2 0.5 0.5 0.9 0.3 0.4 0.6 0.8 0.4 0.3 0.7 0.7 0.4 0.3 0.8 0.6 0.5 0.3 1.1 0.5 0.5 0.3 1.1 0.4 0.6 0.2 1.1 0.2 0.6 0.1 1.2 0 0.6 0 1.2-0.1 0.5-0.2 1.1-0.4 0.5-0.2 1-0.5 0.5-0.3 1-0.7 0 0 0 0z"/><path class="a" d="m12.8 6.4q-0.6 0.2-1.1 0.4-0.2 0-0.3 0.1-0.1 0-0.2 0.1-0.1 0-0.1 0.1-0.1 0-0.1 0.1-0.1 0.1-0.1 0.2-0.2 0.5-0.3 1 0 0-0.1 0.1 0 0 0 0.1 0 0 0 0.1 0 0-0.1 0.1-0.1-0.4-0.2-0.8-0.1-0.3-0.2-0.6 0-0.1-0.1-0.2 0-0.1-0.1-0.1-0.1-0.1-0.2-0.2-0.1 0-0.2 0-0.5-0.2-1.1-0.4l-0.2-0.1q0.3-0.1 0.6-0.1 0.4-0.2 0.8-0.3 0.1 0 0.2-0.1 0 0 0.1-0.1 0.1-0.1 0.1-0.2 0.1 0 0.1-0.1 0.2-0.6 0.4-1.2 0-0.1 0-0.2 0.1 0.1 0.1 0.1 0.2 0.6 0.3 1.1 0 0.1 0.1 0.3 0.1 0.1 0.2 0.2 0.1 0.1 0.2 0.2 0.2 0 0.3 0.1 0.6 0.1 1.2 0.3c0 0 0 0 0 0z"/><path class="a" d="m13.1 9.2q0.3 0 0.6-0.1 0.2-0.1 0.4-0.2 0.1 0 0.1 0 0.1 0 0.1-0.1 0 0 0.1-0.1 0 0 0-0.1 0.2-0.4 0.3-0.9 0 0 0-0.1 0.1 0.4 0.2 0.6 0 0.2 0.1 0.4 0 0.1 0.1 0.1 0 0.1 0 0.1 0.1 0.1 0.2 0.1 0 0 0.1 0.1 0.4 0.1 0.8 0.2h0.1q-0.3 0.1-0.6 0.2-0.2 0.1-0.3 0.1-0.1 0.1-0.1 0.1-0.1 0-0.2 0.1 0 0 0 0.1-0.1 0-0.1 0.1-0.1 0.3-0.2 0.6 0 0.2-0.1 0.3-0.1-0.2-0.1-0.4-0.1-0.3-0.2-0.5 0-0.1 0-0.1-0.1-0.1-0.1-0.1-0.1-0.1-0.1-0.1-0.1 0-0.1-0.1-0.5-0.1-0.9-0.2h-0.1q0-0.1 0-0.1z"/><path class="a" d="m13.9 3q0.1 0.2 0.2 0.5 0 0.2 0.1 0.4 0 0.1 0.1 0.1 0 0.1 0.1 0.2 0 0 0.1 0 0 0.1 0.1 0.1 0.5 0.1 0.9 0.3h-0.2q-0.4 0.1-0.7 0.3-0.1 0-0.1 0-0.1 0-0.2 0.1 0 0.1 0 0.1-0.1 0.1-0.1 0.2-0.1 0.4-0.3 0.8 0 0 0 0.1-0.1-0.4-0.2-0.7 0-0.2-0.1-0.3 0-0.1 0-0.1-0.1-0.1-0.1-0.1 0 0-0.1-0.1 0 0-0.1 0-0.4-0.1-0.8-0.3h-0.2q0.4-0.2 0.8-0.2 0.1-0.1 0.2-0.1 0.1-0.1 0.2-0.2 0.1 0 0.1-0.2 0.1-0.1 0.1-0.2 0.1-0.3 0.2-0.7 0 0 0 0z"/><path class="a" d="m8.2 9.4c0-0.2 0.1-0.3 0.3-0.4 0.2-0.1 0.4 0 0.5 0.1 0.1 0.1 0.2 0.3 0.1 0.5-0.1 0.2-0.2 0.3-0.4 0.3q-0.1 0-0.2 0-0.1-0.1-0.2-0.1 0-0.1-0.1-0.2 0-0.1 0-0.2z"/><path class="a" d="m11.1 12.1q0 0.1 0 0.1 0 0.1-0.1 0.1 0 0 0 0.1-0.1 0-0.2 0 0 0-0.1 0 0-0.1-0.1-0.1 0 0 0-0.1-0.1 0-0.1-0.1 0-0.1 0.1-0.2 0.1-0.1 0.2-0.1 0.2 0 0.3 0.1 0 0.1 0 0.2z"/></svg>