<svg xmlns="http://www.w3.org/2000/svg" width="31.9" height="27.86" viewBox="0 0 31.9 27.86">
  <g id="Group_34982" data-name="Group 34982" transform="translate(0.499 0.502)">
    <g id="Group_16374" data-name="Group 16374" transform="translate(0 0)">
      <path id="Path_64213" data-name="Path 64213" d="M36.989,34.578c.855.461,1.755.93,2.7,1.421l.3.154-.03-.183c-.191-1.148-.372-2.233-.574-3.315a1.194,1.194,0,0,1,.426-1.2c.812-.778,1.65-1.6,2.486-2.418l.02-.019-.225-.035c-.92-.144-1.789-.279-2.673-.371a1.916,1.916,0,0,1-1.888-1.367,13.633,13.633,0,0,0-.761-1.562c-.181-.37-.355-.718-.533-1.076l-.268.546c-.438.892-.874,1.781-1.332,2.662a1.4,1.4,0,0,1-.885.659c-.546.107-1.077.18-1.592.251l-.067.009c-.214.03-.428.059-.641.091-.366.055-.732.111-1.075.165l.155.169c.672.733,1.35,1.476,2.043,2.192a1.428,1.428,0,0,1,.477,1.525c-.123.532-.225,1.1-.3,1.69-.088.532-.173,1.048-.26,1.589l.181-.1c.984-.512,1.921-1,2.849-1.508a1.327,1.327,0,0,1,.71-.2,1.39,1.39,0,0,1,.764.228" transform="translate(-11.978 -9.703)" fill="#1a73e8" stroke="rgba(0,0,0,0)" stroke-width="1"/>
      <path id="Path_64214" data-name="Path 64214" d="M18.775,24.719q-7.02,0-14.04,0a17.929,17.929,0,0,1-1.9-.073,1.431,1.431,0,0,1-1.277-1.269,2.984,2.984,0,0,1-.04-.487q0-7.467,0-14.934V7.7h22.2c.266,0,.266,0,.266.267q0,2.182,0,4.363l1.5,1.226q-.009-3.2-.018-6.394a11.769,11.769,0,0,0-.041-1.4,3.067,3.067,0,0,0-2.645-2.566c-.457-.042-.919-.029-1.379-.031-.143,0-.189-.05-.187-.191q.008-.518-.006-1.036a2.01,2.01,0,0,0-1.555-1.9,1.9,1.9,0,0,0-2.164,1.537,9.508,9.508,0,0,0-.072,1.374c0,.14-.04.188-.185.187-.715-.005-1.429,0-2.144,0-.12,0-.144-.051-.168-.157q-.207-.927-.434-1.851A1.433,1.433,0,0,0,14,.4a1.73,1.73,0,0,0-2.468.251,2.5,2.5,0,0,0-.372.819c-.111.462-.16.939-.225,1.412-.019.148-.053.221-.228.219-.763-.01-1.526-.007-2.289,0-.131,0-.166-.039-.162-.166.011-.369.027-.739.011-1.107A1.946,1.946,0,0,0,6.538.019a1.882,1.882,0,0,0-1.961,1.6c-.067.466-.068.941-.1,1.412-.005.094-.009.162-.137.157-.351-.014-.7,0-1.053-.024A3.191,3.191,0,0,0,.1,5.494,5.612,5.612,0,0,0,0,6.955Q0,15.029.009,23.1a3.023,3.023,0,0,0,.119.822,3.139,3.139,0,0,0,2.781,2.281c.427.036.859.03,1.288.031q4.241,0,8.484,0h5.755ZM18.228,1.554A.976.976,0,0,1,19.273.763a1.056,1.056,0,0,1,1.068.6,1.552,1.552,0,0,1,.143.611c.018.653.007,1.307.007,1.961h0c0,.66.012,1.32,0,1.98a1.156,1.156,0,0,1-1.1,1.192A1.2,1.2,0,0,1,18.16,5.867c-.005-.332,0-.666,0-1,0-.9-.009-1.793,0-2.688a2.529,2.529,0,0,1,.076-.626m-6.536.431A1.158,1.158,0,0,1,13.372.843a1.146,1.146,0,0,1,.643,1.082q.033,2.007,0,4.014a1.169,1.169,0,0,1-1.946.877,1.151,1.151,0,0,1-.378-.909c-.007-.654,0-1.308,0-1.962s-.009-1.308,0-1.962m-6.478.139a1.392,1.392,0,0,1,.378-1.08A1.139,1.139,0,0,1,6.855.81a1.121,1.121,0,0,1,.7,1,14.645,14.645,0,0,1,.009,2.264c-.011.623,0,1.246-.011,1.868A1.127,1.127,0,0,1,6.413,7.1,1.221,1.221,0,0,1,5.223,5.918c-.012-.666,0-1.331,0-2H5.214c0-.6,0-1.2,0-1.8" transform="translate(0 0)" fill="#1d2465" stroke="rgba(0,0,0,0)" stroke-width="1"/>
    </g>
  </g>
</svg>
