<svg xmlns="http://www.w3.org/2000/svg" xmlns:xlink="http://www.w3.org/1999/xlink" width="11.927" height="11.929" viewBox="0 0 11.927 11.929">
  <defs>
    <clipPath id="clip-path">
      <rect id="Rectangle_20745" data-name="Rectangle 20745" width="11.927" height="11.929" fill="#c3c3c3"/>
    </clipPath>
  </defs>
  <g id="Group_35267" data-name="Group 35267" transform="translate(0 0)">
    <g id="Group_35267-2" data-name="Group 35267" transform="translate(0 0)" clip-path="url(#clip-path)">
      <path id="Path_83492" data-name="Path 83492" d="M11.484,8.441a3.063,3.063,0,1,1-6.127-.023,3.063,3.063,0,0,1,6.127.023" transform="translate(-2.462 -2.466)" fill="#c3c3c3"/>
      <path id="Path_83493" data-name="Path 83493" d="M4.861,16.107a.894.894,0,0,1-.12.241q-.524.542-1.064,1.069a.4.4,0,0,1-.516,0,.415.415,0,0,1-.134-.5.7.7,0,0,1,.128-.177q.441-.449.889-.891a.484.484,0,0,1,.362-.185.411.411,0,0,1,.43.433l.025.012" transform="translate(-1.374 -7.196)" fill="#c3c3c3"/>
      <path id="Path_83494" data-name="Path 83494" d="M16.075,4.866a.446.446,0,0,1-.389-.268.372.372,0,0,1,.052-.438c.343-.355.687-.708,1.041-1.051a.425.425,0,0,1,.606.593c-.346.36-.7.71-1.065,1.055a.814.814,0,0,1-.245.11" transform="translate(-7.186 -1.375)" fill="#c3c3c3"/>
      <path id="Path_83495" data-name="Path 83495" d="M16.088,15.618a.874.874,0,0,1,.242.116q.533.512,1.051,1.04a.387.387,0,0,1,.066.472.4.4,0,0,1-.426.234.421.421,0,0,1-.23-.1c-.354-.342-.7-.691-1.047-1.043a.391.391,0,0,1-.059-.448.4.4,0,0,1,.391-.242l.012-.025" transform="translate(-7.187 -7.177)" fill="#c3c3c3"/>
      <path id="Path_83496" data-name="Path 83496" d="M4.409,4.848a.358.358,0,0,1-.278-.114c-.338-.341-.675-.682-1.016-1.019a.423.423,0,0,1,.2-.7.4.4,0,0,1,.39.1c.345.339.683.684,1.023,1.026a.425.425,0,0,1-.215.7.9.9,0,0,1-.109.012" transform="translate(-1.376 -1.378)" fill="#c3c3c3"/>
      <path id="Path_83497" data-name="Path 83497" d="M19.022,10.259h.7a.414.414,0,0,1,.4.272A.434.434,0,0,1,20,11a.38.38,0,0,1-.262.1c-.479,0-.959-.008-1.438,0a.439.439,0,0,1-.406-.357.448.448,0,0,1,.291-.481.306.306,0,0,1,.089-.006h.749" transform="translate(-8.22 -4.714)" fill="#c3c3c3"/>
      <path id="Path_83498" data-name="Path 83498" d="M10.25,1.136c0-.24,0-.479,0-.719a.384.384,0,0,1,.212-.356.39.39,0,0,1,.418,0,.391.391,0,0,1,.215.365c-.006.469,0,.939,0,1.409a.408.408,0,0,1-.269.4.421.421,0,0,1-.485-.131.358.358,0,0,1-.089-.246c.006-.24,0-.479,0-.719" transform="translate(-4.709 0)" fill="#c3c3c3"/>
      <path id="Path_83499" data-name="Path 83499" d="M1.128,10.259h.709a.414.414,0,0,1,.4.287.431.431,0,0,1-.156.48.393.393,0,0,1-.24.078c-.476,0-.952,0-1.428,0A.407.407,0,0,1,0,10.761a.451.451,0,0,1,.286-.493.312.312,0,0,1,.1-.008h.739" transform="translate(0 -4.714)" fill="#c3c3c3"/>
      <path id="Path_83500" data-name="Path 83500" d="M10.248,19.025c0-.24.011-.48,0-.719a.44.44,0,0,1,.295-.4.431.431,0,0,1,.472.154.4.4,0,0,1,.081.249c-.005.473,0,.946,0,1.418a.405.405,0,0,1-.277.394.41.41,0,0,1-.481-.144.483.483,0,0,1-.079-.237c-.01-.239,0-.479,0-.719" transform="translate(-4.707 -8.221)" fill="#c3c3c3"/>
    </g>
  </g>
</svg>
