<svg xmlns="http://www.w3.org/2000/svg" width="28.101" height="27.478" viewBox="0 0 28.101 27.478">
  <g id="Group_34981" data-name="Group 34981" transform="translate(481.217 -7905.534)">
    <g id="Group_18427" data-name="Group 18427" transform="translate(-480.714 7906.037)">
      <g id="Group_17341" data-name="Group 17341" transform="translate(0 0)">
        <g id="Group_16371" data-name="Group 16371" transform="translate(0 0)">
          <g id="Group_16372" data-name="Group 16372">
            <path id="Path_64204" data-name="Path 64204" d="M9.072,24.1l8.921,0V20.951q0-2.56,0-5.117H9.072q0,4.135,0,8.267" transform="translate(-5.439 -8.151)" fill="#1a73e8" stroke="rgba(0,0,0,0)" stroke-width="1"/>
            <path id="Path_64206" data-name="Path 64206" d="M26.365,2.166A.8.8,0,0,0,25.5,2.9c-.016.238-.015.478-.014.71V19.3c0,.2,0,.406,0,.608,0,.582.005,1.184-.018,1.774a3.1,3.1,0,0,1-.811,1.973,3.453,3.453,0,0,1-2.737,1.212q-8.354,0-16.715,0a3.5,3.5,0,0,1-1.724-.385A3.414,3.414,0,0,1,1.757,22.4a5.356,5.356,0,0,1-.143-1.52V1.826c0-.092,0-.188,0-.2a.927.927,0,0,1,.2-.01H21.531c.031,0,.066,0,.1,0a1.389,1.389,0,0,1,.149-.005.538.538,0,0,1,0,.159c0,.035,0,.07,0,.1V19.216a1.922,1.922,0,0,0,.027.378.78.78,0,0,0,.11.271.79.79,0,0,0,1.094.232.92.92,0,0,0,.386-.86V7.571q0-3.3.005-6.581a.83.83,0,0,0,0-.137A.915.915,0,0,0,22.431,0Q18.354.015,14.277.01H.885A1.047,1.047,0,0,0,.659.024.837.837,0,0,0,0,.9V21.3a5.41,5.41,0,0,0,.375,2,5.067,5.067,0,0,0,4.647,3.175H22.217a1.739,1.739,0,0,0,.176-.007,5.033,5.033,0,0,0,3.792-2.18,5.171,5.171,0,0,0,.911-3.094V2.992a.8.8,0,0,0-.732-.826" transform="translate(-0.001 0)" fill="#1e2663" stroke="rgba(0,0,0,0)" stroke-width="1"/>
            <path id="Path_64207" data-name="Path 64207" d="M6.326,32.93a3.139,3.139,0,0,0,.337.019H21.277a3.261,3.261,0,0,0,.348-.02.8.8,0,0,0,.006-1.6,2.96,2.96,0,0,0-.339-.015H6.6a2.156,2.156,0,0,0-.277.015.84.84,0,0,0-.735.8.823.823,0,0,0,.735.8" transform="translate(-2.342 -13.116)" fill="#1e2663" stroke="rgba(0,0,0,0)" stroke-width="1"/>
            <path id="Path_64208" data-name="Path 64208" d="M21.414,6.907H6.769c-.135,0-.27,0-.407.007a.851.851,0,0,0-.743.611.8.8,0,0,0,.318.843,1.057,1.057,0,0,0,.574.174.878.878,0,0,0,.088,0H21.326a2.475,2.475,0,0,0,.358-.024.793.793,0,0,0,.539-1.228.9.9,0,0,0-.809-.377" transform="translate(-2.344 -2.891)" fill="#1e2663" stroke="rgba(0,0,0,0)" stroke-width="1"/>
            <path id="Path_64209" data-name="Path 64209" d="M10.48,39.068a3.512,3.512,0,0,0,.352.016H23c.117,0,.235-.006.352-.018a.829.829,0,0,0,.736-.727.812.812,0,0,0-.633-.846,2.046,2.046,0,0,0-.438-.037H10.776a2.232,2.232,0,0,0-.305.015.843.843,0,0,0-.742.811.831.831,0,0,0,.751.788" transform="translate(-4.075 -15.686)" fill="#1e2663" stroke="rgba(0,0,0,0)" stroke-width="1"/>
            <path id="Path_64210" data-name="Path 64210" d="M30.325,14.2a.818.818,0,0,0-.886-.719H27.172v0H25.321c-.275,0-.56,0-.842.017a.819.819,0,0,0-.754.793.836.836,0,0,0,.756.8c.121.012.244.019.363.019h4.539a1.813,1.813,0,0,0,.294-.024.827.827,0,0,0,.65-.855Z" transform="translate(-9.936 -5.643)" fill="#1e2663" stroke="rgba(0,0,0,0)" stroke-width="1"/>
            <path id="Path_64211" data-name="Path 64211" d="M29.468,18.9H24.763a2.823,2.823,0,0,0-.347.022.839.839,0,0,0-.676.664.827.827,0,0,0-.008.1.81.81,0,0,0,.793.828c.583.009,1.168.007,1.752,0l2.241.009h.255c.272,0,.549,0,.827-.014a.819.819,0,0,0,.728-.9.8.8,0,0,0-.86-.715M27.02,20.4h0v0Z" transform="translate(-9.939 -7.913)" fill="#1e2663" stroke="rgba(0,0,0,0)" stroke-width="1"/>
            <path id="Path_64212" data-name="Path 64212" d="M30.327,25.467a.8.8,0,0,0-.793-.815c-.554,0-1.108,0-1.662,0h-.763l0,0H24.966c-.155,0-.309,0-.464.008a.852.852,0,0,0-.758.61.769.769,0,0,0,.412.883,1.283,1.283,0,0,0,.541.119h.01q1.146.006,2.29.005h2.366a1.759,1.759,0,0,0,.292-.024.8.8,0,0,0,.673-.781" transform="translate(-9.934 -10.322)" fill="#1e2663" stroke="rgba(0,0,0,0)" stroke-width="1"/>
          </g>
        </g>
      </g>
    </g>
  </g>
</svg>
