<svg xmlns="http://www.w3.org/2000/svg" width="27.935" height="28.564" viewBox="0 0 27.935 28.564">
  <g id="Group_34977" data-name="Group 34977" transform="translate(0.5 0.5)">
    <g id="Group_17386" data-name="Group 17386" transform="translate(0 0)">
      <g id="Group_17385" data-name="Group 17385" transform="translate(0 0)">
        <g id="Group_17387" data-name="Group 17387">
          <path id="Path_65804" data-name="Path 65804" d="M26.817,18.57a5.708,5.708,0,0,0,1.251-3.545,6.221,6.221,0,0,0-6.228-6c-.076,0-.151-.011-.226-.011s-.126.007-.189.009a6.223,6.223,0,0,0-6.265,6,6.207,6.207,0,0,0,6.058,5.991c.132.007.262.018.4.018s.29-.011.434-.02a6.692,6.692,0,0,0,3.68-1.359L31.472,25.4l1.087-1.087Zm-5.8-.832-2.475-2.522,1.317-1.293,1.2,1.219L23.805,12.5l1.279,1.331Z" transform="translate(-5.832 -3.469)" fill="#1a73e8" stroke="rgba(0,0,0,0)" stroke-width="1"/>
          <path id="Path_65805" data-name="Path 65805" d="M3.015,25.035H1.723V5.223H3.015V3.5H1.479A1.48,1.48,0,0,0,0,4.978v20.3a1.48,1.48,0,0,0,1.479,1.479H3.015Z" transform="translate(0 -1.347)" fill="#1d2465" stroke="rgba(0,0,0,0)" stroke-width="1"/>
          <path id="Path_65806" data-name="Path 65806" d="M26.189,23.058v2.784H8.223V1.723H26.189V14.759l1.723,1.931V1.478A1.48,1.48,0,0,0,26.433,0H7.979A1.48,1.48,0,0,0,6.5,1.478V26.086a1.48,1.48,0,0,0,1.479,1.479H26.433a1.48,1.48,0,0,0,1.479-1.479V23.6Z" transform="translate(-2.501)" fill="#1d2465" stroke="rgba(0,0,0,0)" stroke-width="1"/>
        </g>
      </g>
    </g>
  </g>
</svg>
