<svg xmlns="http://www.w3.org/2000/svg" width="34.503" height="20.887" viewBox="0 0 34.503 20.887">
  <g id="Group_34976" data-name="Group 34976" transform="translate(782.842 -7905.842)">
    <g id="Group_18426" data-name="Group 18426" transform="translate(-782.342 7906.342)">
      <g id="Group_17388" data-name="Group 17388" transform="translate(0 0)">
        <path id="Path_64191" data-name="Path 64191" d="M54.368,5.007,49.554,9.1v4.938l4.814,4.1Z" transform="translate(-23.535 -2.049)" fill="#1a73e8" stroke="rgba(0,0,0,0)" stroke-width="1"/>
        <g id="Group_16366" data-name="Group 16366" transform="translate(0 0)">
          <g id="Group_16367" data-name="Group 16367">
            <path id="Path_64192" data-name="Path 64192" d="M52.781,18.752a2.517,2.517,0,0,1-1.572-.542l-5.3-4.2a2.189,2.189,0,0,1-.854-1.719V6.478a2.188,2.188,0,0,1,.854-1.718l5.3-4.2a2.533,2.533,0,0,1,1.573-.54h.008A2.5,2.5,0,0,1,54.5.687a2.16,2.16,0,0,1,.705,1.6V16.494a2.161,2.161,0,0,1-.582,1.469,2.475,2.475,0,0,1-1.654.782c-.064,0-.128.007-.192.007m0-17.074a.672.672,0,0,0-.418.143l-5.306,4.2a.582.582,0,0,0-.227.457V12.3a.583.583,0,0,0,.227.457l5.3,4.2a.685.685,0,0,0,.47.143.655.655,0,0,0,.439-.207.573.573,0,0,0,.154-.391V2.28a.576.576,0,0,0-.187-.426.665.665,0,0,0-.455-.176Z" transform="translate(-21.706 -0.023)" fill="#1e2663" stroke="rgba(0,0,0,0)" stroke-width="1"/>
            <path id="Path_64193" data-name="Path 64193" d="M21.192,16.135H10.119A4.123,4.123,0,0,1,6,12.017v-7.9A4.123,4.123,0,0,1,10.119,0H21.192A4.123,4.123,0,0,1,25.31,4.119v7.9a4.123,4.123,0,0,1-4.118,4.119M10.119,1.323a2.8,2.8,0,0,0-2.8,2.8v7.9a2.8,2.8,0,0,0,2.8,2.8H21.192a2.8,2.8,0,0,0,2.8-2.8v-7.9a2.8,2.8,0,0,0-2.8-2.8Z" transform="translate(-3.281 0.97)" fill="#1e2663" stroke="rgba(0,0,0,0)" stroke-width="1"/>
            <path id="Path_64194" data-name="Path 64194" d="M17.063,28a4.443,4.443,0,0,1-1.337.205H5.936a4.457,4.457,0,0,1-4.452-4.452v-4H0v4a5.943,5.943,0,0,0,5.936,5.936h9.79a5.909,5.909,0,0,0,1.337-.157Z" transform="translate(0 -9.804)" fill="#1a73e8" stroke="rgba(0,0,0,0)" stroke-width="1"/>
          </g>
        </g>
      </g>
    </g>
  </g>
</svg>
