<svg xmlns="http://www.w3.org/2000/svg" width="41.158" height="34.193" viewBox="0 0 41.158 34.193">
  <g id="Group_32111" data-name="Group 32111" transform="translate(0 0)">
    <g id="Group_32112" data-name="Group 32112" transform="translate(0 0)">
      <path id="Path_81110" data-name="Path 81110" d="M39.3,1.843H10.268c-3.654,0-4.176.007-7.829-.008-.459,0-.588.145-.587.592q.017,12.389.008,24.778c0,.129.013.259.022.454H25.417V29.5H2.13A1.827,1.827,0,0,1,.024,27.4V2.327A2.087,2.087,0,0,1,2.341.018H39.086a1.82,1.82,0,0,1,2.052,2.059V27.442a1.808,1.808,0,0,1-2.051,2.052H36.551V27.687c.736,0,1.468-.031,2.192.011.474.028.564-.148.564-.584Q39.29,14.774,39.3,2.435V1.843" transform="translate(0 0)" fill="#1a73e8"/>
      <path id="Path_81111" data-name="Path 81111" d="M32.5,25.333c-.71-.384-1.253.047-1.815.638a1.115,1.115,0,0,1-1.528.014,2.919,2.919,0,0,1-.484-.485.679.679,0,0,0-.816-.264,2.05,2.05,0,0,1-.336.072A1.314,1.314,0,0,1,25.843,24a1.148,1.148,0,0,0-.791-1.081,1.284,1.284,0,0,1-.661-2.035,1.136,1.136,0,0,0,.03-1.3,1.314,1.314,0,0,1,.7-2.137,1.1,1.1,0,0,0,.722-.968c.165-1.2.7-1.566,1.9-1.328a.926.926,0,0,0,.989-.313c.865-.956,1.489-.953,2.381,0a.94.94,0,0,0,.992.3c1.211-.246,1.748.128,1.916,1.372a1.023,1.023,0,0,0,.659.905c1.138.533,1.325,1.139.711,2.24a.973.973,0,0,0,0,1.075c.612,1.092.425,1.748-.714,2.234-.585.249-.614.675-.686,1.158a1.3,1.3,0,0,1-1.391,1.21c-.034,0-.068-.006-.1-.011m1.216-3.883a2.087,2.087,0,0,1,.008-2.488,2.025,2.025,0,0,1-1.451-2,2.116,2.116,0,0,1-2.338-.72c-.9.8-.9.8-2.35.772a2.062,2.062,0,0,1-1.493,1.951,2.116,2.116,0,0,1,.033,2.516,2.075,2.075,0,0,1,1.483,1.995,2,2,0,0,1,2.326.731,2.02,2.02,0,0,1,2.329-.754,2.1,2.1,0,0,1,1.453-2.005" transform="translate(1.058 0.62)" fill="#1a73e8"/>
      <path id="Path_81112" data-name="Path 81112" d="M35.346,4.43V6.24H5.322c0-.517-.005-1.034,0-1.553,0-.353.285-.251.473-.251H35.344" transform="translate(0.233 0.194)" fill="#1a73e8"/>
      <rect id="Rectangle_18302" data-name="Rectangle 18302" width="29.987" height="1.753" transform="translate(5.585 10.196)" fill="#1a73e8"/>
      <path id="Path_81113" data-name="Path 81113" d="M25.578,25.649h1.775v3.6l2.505-2.023,2.485,2V25.628c.571,0,1.076-.019,1.577.016.1.006.257.224.258.346.016,2.308.011,4.615.011,7.08l-4.326-3.5-4.28,3.463Z" transform="translate(1.122 1.125)" fill="#1a73e8"/>
      <rect id="Rectangle_18303" data-name="Rectangle 18303" width="16.141" height="1.777" transform="translate(5.596 21.254)" fill="#1a73e8"/>
      <rect id="Rectangle_18304" data-name="Rectangle 18304" width="16.139" height="1.743" transform="translate(5.583 15.727)" fill="#1a73e8"/>
    </g>
  </g>
</svg>
