<svg id="Group_32066" data-name="Group 32066" xmlns="http://www.w3.org/2000/svg" xmlns:xlink="http://www.w3.org/1999/xlink" width="31.464" height="31.519" viewBox="0 0 31.464 31.519">
  <defs>
    <clipPath id="clip-path">
      <rect id="Rectangle_18251" data-name="Rectangle 18251" width="31.464" height="31.519" fill="none" stroke="#fff" stroke-width="0.3"/>
    </clipPath>
  </defs>
  <g id="Group_32067" data-name="Group 32067" clip-path="url(#clip-path)">
    <path id="Path_81057" data-name="Path 81057" d="M16.978,0c1.2.256,2.425.417,3.587.785A15.689,15.689,0,1,1,13.589.14c.3-.042.594-.093.891-.14ZM2.416,15.727A13.312,13.312,0,1,0,15.751,2.415,13.325,13.325,0,0,0,2.416,15.727" transform="translate(0)" stroke="#fff" stroke-width="0.3"/>
    <path id="Path_81058" data-name="Path 81058" d="M127.415,69.351c0-1.38-.014-2.76.006-4.14a1.214,1.214,0,0,1,1.21-1.3,1.232,1.232,0,0,1,1.221,1.294c.009.151,0,.3,0,.454,0,2.269.011,4.537-.009,6.806a1.361,1.361,0,0,0,.441,1.091c1.341,1.3,2.652,2.641,3.979,3.961a1.231,1.231,0,0,1,.358,1.294.993.993,0,0,1-.929.793,1.672,1.672,0,0,1-1.073-.336q-2.453-2.357-4.81-4.813a1.841,1.841,0,0,1-.379-1.134c-.045-1.322-.017-2.646-.017-3.969" transform="translate(-112.906 -56.638)" stroke="#fff" stroke-width="0.3"/>
  </g>
</svg>
