<svg id="Group_32041" data-name="Group 32041" xmlns="http://www.w3.org/2000/svg" width="24.396" height="21.172" viewBox="0 0 24.396 21.172">
  <g id="Union_1" data-name="Union 1" fill="#fff">
    <path d="M 17.74294090270996 20.2716007232666 C 17.68110084533691 20.2716007232666 17.66139984130859 20.2330493927002 17.65298080444336 20.21657943725586 L 16.00969123840332 16.99276924133301 L 15.75927066802979 16.50150108337402 L 15.20785045623779 16.50150108337402 L 1.999800682067871 16.50150108337402 C 1.393370628356934 16.50150108337402 0.9000006318092346 16.00813102722168 0.9000006318092346 15.40170001983643 L 0.9000006318092346 1.999800205230713 C 0.9000006318092346 1.393370151519775 1.393370628356934 0.9000001549720764 1.999800682067871 0.9000001549720764 L 22.3965015411377 0.9000001549720764 C 23.0029296875 0.9000001549720764 23.49629974365234 1.393370151519775 23.49629974365234 1.999800205230713 L 23.49629974365234 15.40170001983643 C 23.49629974365234 16.00813102722168 23.0029296875 16.50150108337402 22.3965015411377 16.50150108337402 L 20.27735137939453 16.50150108337402 L 19.72593116760254 16.50150108337402 L 19.47551155090332 16.99276924133301 L 17.83176040649414 20.21747016906738 C 17.82283973693848 20.23497009277344 17.80416107177734 20.2716007232666 17.74294090270996 20.2716007232666 Z" stroke="none"/>
    <path d="M 17.74259948730469 18.4106388092041 L 19.17452049255371 15.60150051116943 L 22.3965015411377 15.60150051116943 C 22.50666999816895 15.60150051116943 22.59630012512207 15.51187038421631 22.59630012512207 15.40170001983643 L 22.59630012512207 1.999800205230713 C 22.59630012512207 1.889630198478699 22.50666999816895 1.800000190734863 22.3965015411377 1.800000190734863 L 1.999800682067871 1.800000190734863 C 1.889630675315857 1.800000190734863 1.800000667572021 1.889630198478699 1.800000667572021 1.999800205230713 L 1.800000667572021 15.40170001983643 C 1.800000667572021 15.51187038421631 1.889630675315857 15.60150051116943 1.999800682067871 15.60150051116943 L 16.3106803894043 15.60150051116943 L 17.74259948730469 18.4106388092041 M 17.74294090270996 21.17160034179688 C 17.39025115966797 21.17160034179688 17.03745079040527 20.98979949951172 16.85160064697266 20.62619972229004 L 15.20785045623779 17.4015007019043 L 1.999800682067871 17.4015007019043 C 0.895500659942627 17.4015007019043 6.347656267280399e-07 16.50600051879883 6.347656267280399e-07 15.40170001983643 L 6.347656267280399e-07 1.999800205230713 C 6.347656267280399e-07 0.8946001529693604 0.895500659942627 1.708984314063855e-07 1.999800682067871 1.708984314063855e-07 L 22.3965015411377 1.708984314063855e-07 C 23.50080108642578 1.708984314063855e-07 24.39630126953125 0.8946001529693604 24.39630126953125 1.999800205230713 L 24.39630126953125 15.40170001983643 C 24.39630126953125 16.50600051879883 23.50080108642578 17.4015007019043 22.3965015411377 17.4015007019043 L 20.27735137939453 17.4015007019043 L 18.63360023498535 20.62619972229004 C 18.44820022583008 20.98979949951172 18.09562110900879 21.17160034179688 17.74294090270996 21.17160034179688 Z" stroke="none" fill="#363636"/>
  </g>
  <rect id="Rectangle_18120" data-name="Rectangle 18120" width="16" height="2" transform="translate(4.198 5.215)" fill="#191919"/>
  <rect id="Rectangle_18121" data-name="Rectangle 18121" width="10" height="2" transform="translate(4.198 10.215)" fill="#191919"/>
</svg>
