<svg xmlns="http://www.w3.org/2000/svg" width="23.666" height="18.3" viewBox="0 0 23.666 18.3">
  <g id="Group_32103" data-name="Group 32103" transform="translate(0.002 0.001)">
    <g id="Group_32104" data-name="Group 32104" transform="translate(-0.002 -0.001)">
      <path id="Path_81118" data-name="Path 81118" d="M11.311,4.164Q10.441,5,9.57,5.838a4.991,4.991,0,0,1-.559.513,1.066,1.066,0,0,1-1.524-.1A.992.992,0,0,1,7.494,4.8c.421-.492.9-.931,1.358-1.391.953-.958,1.891-1.936,2.87-2.87a1.242,1.242,0,0,1,2.053.024c1.371,1.341,2.717,2.706,4.07,4.064A1.083,1.083,0,0,1,18,6.269a1.146,1.146,0,0,1-1.725-.1C15.56,5.5,14.869,4.817,14,3.981c-.049.623-.1,1-.1,1.386q-.01,5.5-.005,11a5.92,5.92,0,0,1-.024.845,1.067,1.067,0,0,1-1.131,1.03,1.045,1.045,0,0,1-1.082-.986,6.306,6.306,0,0,1-.037-.927q0-5.541.005-11.085c0-.325-.049-.651-.075-.976l-.237-.1" transform="translate(5.354 0.006)" fill="#3f4057"/>
      <path id="Path_81119" data-name="Path 81119" d="M7.2,11.413q-2.708,0-5.418,0a4.8,4.8,0,0,1-.761-.026A1.064,1.064,0,0,1,1,9.26a3.319,3.319,0,0,1,.59-.03l11.092,0c.084,0,.169,0,.253,0,.812.038,1.379.5,1.313,1.121a1.138,1.138,0,0,1-1.292,1.062c-1.1.009-2.2.005-3.3.005H7.2Z" transform="translate(0.006 6.883)" fill="#3f4057"/>
      <path id="Path_81120" data-name="Path 81120" d="M5.9,8.356c-1.494,0-2.989.01-4.483,0C.49,8.344-.007,7.937,0,7.251s.52-1.1,1.423-1.1q4.483-.018,8.969-.005c.911,0,1.432.409,1.456,1.072.026.707-.5,1.133-1.468,1.142-1.494.012-2.989,0-4.483,0Z" transform="translate(0.004 4.58)" fill="#3f4057"/>
      <path id="Path_81121" data-name="Path 81121" d="M4.759,3.066c1.1,0,2.2-.012,3.3,0,.883.012,1.419.456,1.409,1.121s-.522,1.1-1.423,1.1q-3.3.021-6.594,0C.491,5.287-.03,4.843,0,4.131c.031-.665.553-1.056,1.46-1.063,1.1-.009,2.2,0,3.3,0" transform="translate(0.003 2.284)" fill="#3f4057"/>
      <path id="Path_81122" data-name="Path 81122" d="M3.594,2.207c-.761,0-1.521.021-2.28-.005C.47,2.172-.033,1.743,0,1.081.041.3.575.02,1.265.011Q3.588-.015,5.911.016A1.082,1.082,0,0,1,7.1,1.078c.047.623-.47,1.091-1.227,1.123s-1.519.007-2.28.007" transform="translate(0.001 0)" fill="#3f4057"/>
    </g>
  </g>
</svg>
