<svg xmlns="http://www.w3.org/2000/svg" width="17.119" height="11.501" viewBox="0 0 17.119 11.501">
  <path id="Union_12" data-name="Union 12" d="M4381.77,1887.5h-1.475c-.885,0-1.77,0-2.655,0-1.108,0-1.637-.667-1.639-2.052q0-1.1,0-2.2v-2.019q0-1.1,0-2.2c0-1.341.526-2.024,1.572-2.025q2.435-.005,4.868,0h.4q1.576,0,3.153,0c1,0,1.549.686,1.552,1.944q.006,3.311,0,6.623c0,1.219-.559,1.924-1.526,1.929-.59,0-1.182,0-1.772,0Zm9.416-.357c-.886-.675-1.764-1.366-2.653-2.034a.985.985,0,0,1-.4-.88q.018-1.99,0-3.982a.944.944,0,0,1,.377-.843c.9-.678,1.789-1.38,2.688-2.062.531-.4.913-.133.917.645.006,1.413,0,2.827,0,4.24h0c0,1.414,0,2.827,0,4.24,0,.563-.183.868-.474.868A.786.786,0,0,1,4391.185,1887.143Z" transform="translate(-4375.5 -1876.5)" fill="#07182d" stroke="rgba(0,0,0,0)" stroke-width="1"/>
</svg>
