<svg xmlns="http://www.w3.org/2000/svg" xmlns:xlink="http://www.w3.org/1999/xlink" width="32.677" height="36" viewBox="0 0 32.677 36">
  <defs>
    <clipPath id="clip-path">
      <rect id="Rectangle_18252" data-name="Rectangle 18252" width="32.677" height="36" fill="none"/>
    </clipPath>
  </defs>
  <g id="Group_32067" data-name="Group 32067" transform="translate(0 0)">
    <g id="Group_32070" data-name="Group 32070" transform="translate(0 0)" clip-path="url(#clip-path)">
      <path id="Path_81059" data-name="Path 81059" d="M38.222,23.133a10.888,10.888,0,0,0-3.757.767A11.386,11.386,0,0,0,27.23,34.531q0,3.488,0,6.977c0,.745-.348,1.205-.956,1.289a1.078,1.078,0,0,1-1.224-.884,1.786,1.786,0,0,1-.036-.311c.009-2.639-.067-5.283.048-7.917A13.512,13.512,0,0,1,36.109,21.141c.694-.124,1.4-.182,2.1-.271L36.3,19.005l1.553-1.575,4.587,4.6-4.556,4.551-1.479-1.494,1.9-1.836-.082-.119" transform="translate(-9.763 -6.808)"/>
      <path id="Path_81060" data-name="Path 81060" d="M23.909,20.342c-.357-.506-.719-1-1.056-1.513a.78.78,0,0,1-.058-.4q0-6.907,0-13.815V4.145L20.861,6.13,19.318,4.583,23.9,0l4.612,4.612-1.544,1.54L25.012,4.164v.609q0,6.82-.009,13.64a1.281,1.281,0,0,1-.208.628c-.273.442-.583.861-.886,1.3" transform="translate(-7.545 0)"/>
      <path id="Path_81061" data-name="Path 81061" d="M4.612,17.387l1.525,1.532L4.192,20.845c.772.1,1.489.144,2.187.283a13.445,13.445,0,0,1,9.367,6.743.465.465,0,0,1,.054.344c-.349.942-.716,1.879-1.055,2.757A11.5,11.5,0,0,0,4.306,23.08l-.084.1c.319.315.636.631.956.946s.631.617.913.892L4.553,26.557,0,22l4.612-4.614" transform="translate(0 -6.791)"/>
    </g>
  </g>
</svg>
