<svg xmlns="http://www.w3.org/2000/svg" width="26.173" height="25.849" viewBox="0 0 26.173 25.849">
  <g id="Group_34749" data-name="Group 34749" transform="matrix(0.951, -0.309, 0.309, 0.951, 0.507, 6.72)">
    <g id="Group_34663" data-name="Group 34663" transform="translate(0 0)">
      <path id="Path_81169" data-name="Path 81169" d="M18.406,7.283c1.168.278,1.686.831,1.688,1.748,0,.9-.51,1.445-1.686,1.749,0,.166,0,.348,0,.529,0,1.75,0,3.5,0,5.249,0,.854-.375,1.351-1.076,1.471a1.281,1.281,0,0,1-1.465-1.01,4.958,4.958,0,0,0-1.8-2.251,11.815,11.815,0,0,0-6.948-1.951c-.008.173-.023.352-.023.531,0,1.565.011,3.13-.005,4.694a1.467,1.467,0,0,1-2.925.209c-.064-.364-.114-.73-.162-1.1-.178-1.35-.362-2.7-.521-4.05-.037-.312-.2-.351-.456-.405a3.735,3.735,0,0,1-.142-7.3,6.277,6.277,0,0,1,1.2-.1c1.7-.06,3.4-.024,5.087-.188a9.755,9.755,0,0,0,5.064-1.95A4.716,4.716,0,0,0,15.906.932,1.267,1.267,0,0,1,17.292.013a1.25,1.25,0,0,1,1.1,1.294c.02,1.665.009,3.331.011,5,0,.319,0,.637,0,.979M7.115,11.843a1.926,1.926,0,0,0,.243.04A13.985,13.985,0,0,1,12,12.7c2.11.778,3.94,1.888,4.77,4.153.047.129.315.3.407.263A.608.608,0,0,0,17.5,16.7a12.751,12.751,0,0,0,.017-1.31q0-6.911,0-13.822c0-.277.008-.612-.334-.621-.161,0-.362.262-.489.445a14.253,14.253,0,0,1-1.287,1.9,10.031,10.031,0,0,1-5.8,2.669c-.82.137-1.653.189-2.5.282Zm-.938-.023V6.184c-.92,0-1.811-.053-2.693.012A2.857,2.857,0,0,0,.889,8.9a2.779,2.779,0,0,0,2.343,2.9,23.9,23.9,0,0,0,2.944.023m-1.85.99c.236,1.739.47,3.419.686,5.1.052.4.143.745.63.751.386,0,.565-.274.565-.846q0-2.272,0-4.544c0-.147-.017-.293-.028-.463ZM18.442,8.27v1.5c.509-.067.815-.363.769-.77a.734.734,0,0,0-.769-.732" transform="translate(0 0)" fill="#de43a3" stroke="#de43a3" stroke-width="0.8"/>
    </g>
  </g>
</svg>
