<svg id="article_1_" data-name="article (1)" xmlns="http://www.w3.org/2000/svg" width="23.219" height="17.861" viewBox="0 0 23.219 17.861">
  <path id="Path_30948" data-name="Path 30948" d="M61,312.893v9.228a1.786,1.786,0,0,0,3.572,0V312H61.893A.893.893,0,0,0,61,312.893Z" transform="translate(-61 -306.047)" fill="#757ec4"/>
  <path id="Path_30949" data-name="Path 30949" d="M236,287h7.74v1.786H236Z" transform="translate(-225.581 -282.535)" fill="#757ec4"/>
  <path id="Path_30950" data-name="Path 30950" d="M160.376,212H144.3a.893.893,0,0,0-.893.893v15.181a3.549,3.549,0,0,1-.481,1.786h16.555a1.786,1.786,0,0,0,1.786-1.786V212.893A.893.893,0,0,0,160.376,212ZM157.1,227.181h-9.526a.893.893,0,0,1,0-1.786H157.1a.893.893,0,0,1,0,1.786Zm0-3.572h-9.526a.893.893,0,1,1,0-1.786H157.1a.893.893,0,0,1,0,1.786Zm.893-4.465a.893.893,0,0,1-.893.893h-9.526a.893.893,0,0,1-.893-.893v-3.572a.893.893,0,0,1,.893-.893H157.1a.893.893,0,0,1,.893.893Z" transform="translate(-138.05 -212)" fill="#757ec4"/>
</svg>
