<svg xmlns="http://www.w3.org/2000/svg" width="28.125" height="24.793" viewBox="0 0 28.125 24.793">
  <g id="Group_34751" data-name="Group 34751" transform="translate(0.249 0.25)">
    <g id="Group_34668" data-name="Group 34668" transform="translate(0)">
      <path id="Path_81171" data-name="Path 81171" d="M20.933,0c2.3.777,2.852,1.543,2.853,3.984,0,2.663.007,5.326,0,7.989A3.132,3.132,0,0,1,20.317,15.4c-3.64.007-7.281-.018-10.921.026a2.535,2.535,0,0,0-1.423.543C6.654,17.009,5.4,18.144,4.106,19.215a3.385,3.385,0,0,1-.869.377,3.308,3.308,0,0,1-.291-.991c.033-1.037.145-2.07.225-3.085C.695,14.877,0,13.977,0,11.49Q0,7.8,0,4.108C0,1.606.479.888,2.723,0ZM4.193,17.806c1.121-.966,2.12-1.912,3.216-2.73A3.3,3.3,0,0,1,9.188,14.4c3.7-.061,7.409-.026,11.113-.033,1.684,0,2.448-.781,2.452-2.483q.01-4.142,0-8.285c0-1.683-.766-2.5-2.447-2.51q-8.436-.03-16.871,0A2.136,2.136,0,0,0,1.019,3.442q-.055,4.292,0,8.586a2.074,2.074,0,0,0,2.3,2.324c.727.016.936.292.884.984-.059.767-.013,1.542-.013,2.47" transform="translate(0)" fill="#3558a7" stroke="#3558a7" stroke-width="0.5"/>
      <path id="Path_81172" data-name="Path 81172" d="M6.735,20.176c.892-.819,1.757-1.67,2.691-2.437a2,2,0,0,1,1.177-.376c3.875-.027,7.752-.013,11.627-.017,2.516,0,3.4-.89,3.4-3.4V7.171a2.545,2.545,0,0,1,2.425,2.473c.065,2.762.116,5.531-.014,8.289-.082,1.738-1.379,2.506-3.095,2.754.062,1.089.142,2.151.169,3.215a3.531,3.531,0,0,1-.215.9,3.162,3.162,0,0,1-.851-.371c-1.279-1.1-2.5-2.257-3.808-3.322a2.62,2.62,0,0,0-1.492-.582c-3.606-.049-7.212-.026-10.819-.026H6.941l-.206-.326" transform="translate(-0.244 -0.26)" fill="#3558a7"/>
      <path id="Path_81173" data-name="Path 81173" d="M12.081,6.086c-2.256,0-4.513.019-6.769-.022-.306-.006-.608-.311-.913-.477.31-.177.621-.507.932-.51q6.819-.049,13.639,0c.3,0,.607.332.91.508-.309.167-.617.472-.93.478-2.289.041-4.579.022-6.869.022" transform="translate(-0.159 -0.183)" fill="#3558a7" stroke="#3558a7" stroke-width="0.4"/>
      <path id="Path_81174" data-name="Path 81174" d="M10.928,9.864c-1.917,0-3.835.02-5.752-.021-.288-.007-.571-.3-.856-.457.309-.185.617-.529.928-.532q5.7-.056,11.4,0c.28,0,.557.327.836.5-.269.17-.535.482-.808.488-1.917.043-3.835.023-5.752.023" transform="translate(-0.156 0.68)" fill="#3558a7" stroke="#3558a7" stroke-width="0.4"/>
    </g>
  </g>
</svg>
