<svg id="Group_34513" data-name="Group 34513" xmlns="http://www.w3.org/2000/svg" width="23.576" height="20.559" viewBox="0 0 23.576 20.559">
  <g id="Group_16374" data-name="Group 16374" transform="translate(0)">
    <path id="Path_64213" data-name="Path 64213" d="M35.514,32.356c.665.358,1.364.723,2.1,1.1l.23.12-.024-.142c-.148-.892-.289-1.736-.446-2.577a.928.928,0,0,1,.331-.936c.631-.6,1.282-1.243,1.932-1.88l.016-.015L39.475,28c-.715-.112-1.39-.217-2.078-.288a1.489,1.489,0,0,1-1.468-1.063,10.594,10.594,0,0,0-.591-1.214c-.141-.288-.276-.558-.414-.836l-.209.425c-.34.693-.68,1.384-1.036,2.069a1.088,1.088,0,0,1-.688.513c-.424.083-.837.14-1.237.2l-.052.007c-.166.023-.332.046-.5.071l-.836.129.12.131c.522.57,1.05,1.147,1.588,1.7a1.11,1.11,0,0,1,.371,1.186c-.1.413-.175.858-.234,1.314-.069.413-.134.815-.2,1.235l.141-.074c.765-.4,1.493-.778,2.215-1.172a1.031,1.031,0,0,1,.552-.155,1.081,1.081,0,0,1,.594.177" transform="translate(-16.075 -13.022)" fill="#fff"/>
    <path id="Path_64214" data-name="Path 64214" d="M14.593,19.213q-5.456,0-10.913,0A13.932,13.932,0,0,1,2.2,19.156a1.112,1.112,0,0,1-.993-.987,2.319,2.319,0,0,1-.031-.378q0-5.8,0-11.608V5.989H18.43c.207,0,.207,0,.207.208q0,1.7,0,3.391l1.165.953q-.007-2.485-.014-4.97a9.15,9.15,0,0,0-.032-1.085A2.384,2.384,0,0,0,17.7,2.492c-.355-.032-.714-.023-1.072-.024-.111,0-.147-.039-.145-.149q.006-.4,0-.8A1.563,1.563,0,0,0,15.27.035a1.476,1.476,0,0,0-1.682,1.195A7.391,7.391,0,0,0,13.533,2.3c0,.109-.031.146-.144.145-.555,0-1.111,0-1.666,0-.093,0-.112-.04-.13-.122Q11.431,1.6,11.255.883a1.114,1.114,0,0,0-.371-.57,1.345,1.345,0,0,0-1.919.2,1.944,1.944,0,0,0-.289.636c-.086.359-.124.73-.175,1.1-.015.115-.041.172-.177.17-.593-.008-1.186-.006-1.779,0-.1,0-.129-.031-.126-.129.008-.287.021-.574.008-.86A1.512,1.512,0,0,0,5.082.014,1.463,1.463,0,0,0,3.558,1.257c-.052.362-.053.731-.075,1.1,0,.073-.007.126-.106.122-.273-.011-.546,0-.819-.019A2.48,2.48,0,0,0,.079,4.27,4.362,4.362,0,0,0,0,5.405q0,6.276,0,12.552A2.349,2.349,0,0,0,.1,18.6a2.44,2.44,0,0,0,2.161,1.773c.332.028.667.024,1,.024q3.3,0,6.594,0h4.473ZM14.168,1.208A.758.758,0,0,1,14.98.593a.821.821,0,0,1,.83.469,1.206,1.206,0,0,1,.111.475c.014.508.005,1.016.005,1.524h0c0,.513.009,1.026,0,1.539a.9.9,0,0,1-.855.927.929.929,0,0,1-.953-.966c0-.258,0-.517,0-.776,0-.7-.007-1.393,0-2.089a1.965,1.965,0,0,1,.059-.487m-5.08.335A.9.9,0,0,1,10.393.656a.891.891,0,0,1,.5.841q.025,1.56,0,3.12A.908.908,0,0,1,9.38,5.3a.9.9,0,0,1-.294-.707c-.005-.508,0-1.017,0-1.525s-.007-1.017,0-1.525M4.053,1.65A1.082,1.082,0,0,1,4.346.81.886.886,0,0,1,5.328.63a.871.871,0,0,1,.545.776,11.383,11.383,0,0,1,.007,1.76c-.008.484,0,.968-.008,1.452a.876.876,0,0,1-.887.9A.949.949,0,0,1,4.06,4.6c-.009-.517,0-1.035,0-1.552H4.053c0-.466,0-.932,0-1.4" transform="translate(0 0)" fill="#fff"/>
  </g>
</svg>
