<svg xmlns="http://www.w3.org/2000/svg" width="20.329" height="20.323" viewBox="0 0 20.329 20.323">
  <g id="Group_34998" data-name="Group 34998" transform="translate(0)">
    <g id="Group_34999" data-name="Group 34999">
      <path id="Path_81205" data-name="Path 81205" d="M19.734,8.725l-.142.141h0l.142-.141L11.6.6A2.034,2.034,0,0,0,8.724.6L.593,8.727a2.033,2.033,0,0,0,1.361,3.466h.181v5.782a2.354,2.354,0,0,0,2.348,2.346H7.662a.785.785,0,0,0,.784-.784V14.85a.783.783,0,0,1,.779-.779H11.1a.781.781,0,0,1,.779.779v4.689a.785.785,0,0,0,.784.784h3.18a2.352,2.352,0,0,0,2.347-2.347V12.2h.1a2.034,2.034,0,0,0,1.439-3.471" fill="#eb1a56"/>
    </g>
  </g>
</svg>
