<svg xmlns="http://www.w3.org/2000/svg" width="20.568" height="20.323" viewBox="0 0 20.568 20.323">
  <g id="Group_34518" data-name="Group 34518" transform="translate(0.323 0.2)">
    <g id="Group_19633" data-name="Group 19633" transform="translate(0 0)">
      <path id="Path_76848" data-name="Path 76848" d="M19.385,8.665l0,0L11.257.536a1.834,1.834,0,0,0-2.594,0L.54,8.659l-.008.008a1.833,1.833,0,0,0,1.22,3.125l.057,0h.324v5.981a2.149,2.149,0,0,0,2.147,2.147h3.18a.584.584,0,0,0,.584-.584V14.649a.981.981,0,0,1,.979-.979H10.9a.98.98,0,0,1,.979.979v4.689a.584.584,0,0,0,.584.584h3.18a2.149,2.149,0,0,0,2.147-2.147V11.795h.3a1.834,1.834,0,0,0,1.3-3.13m-.827,1.767a.663.663,0,0,1-.472.2H17.2a.584.584,0,0,0-.584.584v6.564a.98.98,0,0,1-.979.979h-2.6V14.649A2.149,2.149,0,0,0,10.9,12.5H9.022a2.149,2.149,0,0,0-2.147,2.147v4.105h-2.6a.98.98,0,0,1-.979-.979V11.211a.584.584,0,0,0-.584-.584h-.9a.666.666,0,0,1-.459-1.137h0L9.489,1.362a.666.666,0,0,1,.943,0l8.125,8.125,0,0a.668.668,0,0,1,0,.942" transform="translate(0.001 0.001)" fill="#363636" stroke="#363636" stroke-width="0.4"/>
    </g>
  </g>
</svg>
