<svg xmlns="http://www.w3.org/2000/svg" width="26.917" height="18.985" viewBox="0 0 26.917 18.985">
  <g id="Group_34926" data-name="Group 34926" transform="translate(-1.631 -1.048)">
    <g id="Group_34927" data-name="Group 34927">
      <path id="Path_81199" data-name="Path 81199" d="M26.318,2.337V16.087a.6.6,0,0,0-.057.127,2.407,2.407,0,0,1-2.6,2.171H2.548A2.41,2.41,0,0,1,.009,15.924C-.009,11.437,0,6.95,0,2.463A2.458,2.458,0,0,1,2.511,0C3.735.038,4.961.01,6.186.01c5.849,0,11.7.014,17.548-.01a2.461,2.461,0,0,1,2.495,1.958l.089.379M1.913,4.442c-.009.121-.018.178-.018.235q0,5.471,0,10.941c0,.389.115.485.579.486q10.666,0,21.332,0c.507,0,.576-.075.576-.589q0-5.273,0-10.545c0-.125-.011-.249-.019-.408-.176.1-.312.169-.445.246Q18.659,7.861,13.4,10.922a.489.489,0,0,1-.582,0Q8.885,8.569,4.936,6.233c-.989-.587-1.978-1.172-3.023-1.792m.58-2.154c.126.089.2.146.273.192q5.056,3,10.109,6.01a.466.466,0,0,0,.551-.015q5.107-2.987,10.222-5.961c.1-.057.191-.123.352-.227Z" transform="translate(1.93 1.349)" fill="#363636" stroke="#fff" stroke-width="0.6"/>
    </g>
  </g>
</svg>
