<svg xmlns="http://www.w3.org/2000/svg" width="24.024" height="21.048" viewBox="0 0 24.024 21.048">
  <g id="Group_34517" data-name="Group 34517" transform="translate(0.25 0.395)">
    <g id="Group_32007" data-name="Group 32007" transform="translate(0 0)">
      <path id="Path_81029" data-name="Path 81029" d="M23.3,1.29c-.174-.116-4.345-2.812-11.253-.049l-.284.113-.284-.113C4.57-1.521.4,1.176.225,1.29L0,1.441v18.54l.693-.276c.065-.024,6.544-2.564,10.317-.049l.719.48v.044l.034-.023.034.023v-.044l.719-.48c3.772-2.516,10.251.023,10.317.049l.693.276V1.441ZM11.021,18.366c-3.438-1.674-8.275-.429-10.01.151V2c.9-.47,4.674-1.97,10.01.053Zm11.492.151a18.852,18.852,0,0,0-5.673-.99,11.706,11.706,0,0,0-4.606.839V2.057C17.572.035,21.613,1.534,22.513,2Z" transform="translate(0 0)" fill="#070707" stroke="#060606" stroke-width="0.5"/>
    </g>
  </g>
</svg>
