<svg xmlns="http://www.w3.org/2000/svg" width="22.185" height="22.384" viewBox="0 0 22.185 22.384">
  <g id="Group_34516" data-name="Group 34516" transform="translate(0.087 0.1)">
    <g id="Group_31994" data-name="Group 31994" transform="translate(0 0)">
      <path id="Path_81018" data-name="Path 81018" d="M20.057,17.178a3.881,3.881,0,0,0-1.064-.231,2.843,2.843,0,0,0-1.473.427,1.55,1.55,0,0,0-.273,1.38,1.737,1.737,0,0,1-1.086,2.571c-.411.174-.822.35-1.227.538a1.581,1.581,0,0,1-2.328-.8,1.876,1.876,0,0,0-1.36-.9A1.936,1.936,0,0,0,9.96,21.183a1.471,1.471,0,0,1-2.069.866c-.505-.178-.99-.422-1.5-.569C5.2,21.139,4.9,20.414,5.16,19.229a1.982,1.982,0,0,0-.4-1.579,1.771,1.771,0,0,0-1.5-.186A1.619,1.619,0,0,1,.976,16.5c-.229-.533-.457-1.067-.689-1.6a1.517,1.517,0,0,1,.766-2.124c.451-.286,1.012-.9.978-1.321a2.168,2.168,0,0,0-1.057-1.4,1.493,1.493,0,0,1-.812-2.1C.371,7.412.6,6.876.78,6.324A1.488,1.488,0,0,1,2.945,5.238a1.669,1.669,0,0,0,1.463-.3A1.988,1.988,0,0,0,4.7,3.33a1.656,1.656,0,0,1,.931-2.311c.529-.24,1.057-.48,1.6-.7a1.546,1.546,0,0,1,2.135.769,2.563,2.563,0,0,0,1.348.97c.833.257,1.148-.412,1.411-1.072A1.362,1.362,0,0,1,14.183.2,11.485,11.485,0,0,0,15.559.72c1.246.351,1.582,1.1,1.27,2.345A1.751,1.751,0,0,0,17.2,4.532a1.75,1.75,0,0,0,1.5.232,1.675,1.675,0,0,1,2.38,1.018c.224.487.423.985.638,1.476a1.584,1.584,0,0,1-.8,2.234,1.967,1.967,0,0,0-.93,1.351,1.909,1.909,0,0,0,.99,1.311,1.49,1.49,0,0,1,.854,2.176A12.808,12.808,0,0,1,21.1,16.2a4.7,4.7,0,0,1-1.04.977M1.107,8.668a2.891,2.891,0,0,0,.349.306c2.365,1.211,2.483,3.175.322,4.766a1.1,1.1,0,0,0-.355.945,11.942,11.942,0,0,0,.82,1.79c2.861-1.267,5.033.784,3.965,3.7l2.446.935c.151-.278.249-.425.316-.585.364-.864.81-1.542,1.928-1.552,1.137-.01,2.111.039,2.658,1.289.12.275.836.47,1.225.4a6.5,6.5,0,0,0,1.592-.757c-.379-1.206-.842-2.233.23-3.4s2.167-.885,3.391-.483l.938-2.582c-1.064-.519-2.119-.847-2.144-2.321A2.672,2.672,0,0,1,20.38,8.337c.2-.1-.062-1.224-.228-1.843-.153-.572-.523-.939-1.2-.557-1.1.62-1.862.091-2.727-.639-1.17-.988-.64-2.07-.384-3.243L13.4,1.15a3.083,3.083,0,0,0-.265.34c-1.2,2.408-3.148,2.528-4.741.326a1.089,1.089,0,0,0-.938-.347,12.077,12.077,0,0,0-1.785.814c1.221,2.832-.6,4.981-3.679,4.039L1.107,8.668" transform="translate(0 0)" fill="#363636" stroke="#000" stroke-width="0.2"/>
      <path id="Path_81019" data-name="Path 81019" d="M31.882,35.339a3.18,3.18,0,0,1-3.269-3.316,3.264,3.264,0,1,1,6.528-.009,3.175,3.175,0,0,1-3.259,3.325m0-5.453a2.163,2.163,0,0,0-2.18,2.206,2.181,2.181,0,0,0,4.361,0,2.167,2.167,0,0,0-2.181-2.207" transform="translate(-20.873 -20.943)" stroke="#000" stroke-width="0.2" fill="#363636"/>
    </g>
  </g>
</svg>
