<svg xmlns="http://www.w3.org/2000/svg" width="21.132" height="21.132" viewBox="0 0 21.132 21.132">
  <g id="Group_32063" data-name="Group 32063" transform="translate(-1875 -299.435)">
    <g id="Group_31887" data-name="Group 31887" transform="translate(1875 299.435)">
      <g id="Group_31875" data-name="Group 31875" transform="translate(0 0)">
        <g id="Group_31869" data-name="Group 31869" transform="translate(0 0)">
          <g id="Group_31862" data-name="Group 31862" transform="translate(0 0)">
            <g id="Group_31857" data-name="Group 31857" transform="translate(0 0)">
              <g id="Group_31870" data-name="Group 31870">
                <path id="Path_80974" data-name="Path 80974" d="M10.566,1.691a8.875,8.875,0,1,1-8.875,8.875,8.885,8.885,0,0,1,8.875-8.875m0-1.691A10.566,10.566,0,1,0,21.132,10.566,10.565,10.565,0,0,0,10.566,0" transform="translate(0 0)" fill="#404040"/>
              </g>
            </g>
          </g>
        </g>
      </g>
    </g>
    <path id="Path_80960" data-name="Path 80960" d="M10.643,0,3.8,5.131,1.52,2.09,0,3.231,3.421,7.792,11.783,1.52Z" transform="matrix(0.998, -0.07, 0.07, 0.998, 1879.417, 307.504)" fill="#404040"/>
  </g>
</svg>
