<svg xmlns="http://www.w3.org/2000/svg" width="24" height="24" viewBox="0 0 24 24" fill="none" class="ah"><path d="M22 12a10 10 0 1 0-11.56 9.88V14.9H7.9V12h2.54V9.8c0-2.5 1.5-3.9 3.77-3.9 1.1 0 2.24.2 2.24.2v2.46H15.2c-1.24 0-1.63.78-1.63 1.57V12h2.78l-.45 2.9h-2.33v6.98A10 10 0 0 0 22 12z" fill="#1877F2"></path><path d="M15.9 14.9l.44-2.9h-2.78v-1.87c0-.8.39-1.57 1.63-1.57h1.26V6.1s-1.14-.2-2.24-.2c-2.28 0-3.77 1.4-3.77 3.9V12H7.9v2.9h2.54v6.98a10.07 10.07 0 0 0 3.12 0V14.9h2.33z" fill="#fff"></path></svg>