<svg xmlns="http://www.w3.org/2000/svg" width="17.557" height="15.402" viewBox="0 0 17.557 15.402">
  <g id="Group_32144" data-name="Group 32144" transform="translate(0.336 0.295)">
    <g id="Group_31953" data-name="Group 31953" transform="translate(-0.336 -0.295)">
      <path id="Path_80998" data-name="Path 80998" d="M15.216,15.4H10.549v-.243q0-2.041,0-4.081c0-.35-.1-.435-.524-.436q-1.282,0-2.563,0c-.391,0-.49.082-.49.416q0,2.051,0,4.1v.234H2.313V7.642H1.771c-.477,0-.954.01-1.429-.008a.449.449,0,0,1-.328-.156c-.043-.092.026-.227.068-.337.019-.05.092-.085.141-.126L8.378.207c.332-.277.435-.277.771,0l8.157,6.806c.031.026.061.052.093.077.131.1.223.238.1.365a.605.605,0,0,1-.375.17c-.626.017-1.253.008-1.911.008Z" transform="translate(0 0)" fill="#087ffa"/>
    </g>
  </g>
</svg>
