<svg xmlns="http://www.w3.org/2000/svg" width="126.73" height="32.923" viewBox="0 0 126.73 32.923">
  <g id="Group_34760" data-name="Group 34760" transform="translate(0 0)">
    <path id="Path_83455" data-name="Path 83455" d="M0,19.329v3.009H4.085V35.308H7.84V22.338h4.085V19.329Z" transform="translate(0 -8.441)" fill="#1a1a1a"/>
    <g id="Group_34759" data-name="Group 34759" transform="translate(10.827 0)">
      <g id="Group_34761" data-name="Group 34761" transform="translate(0 0)">
        <rect id="Rectangle_19567" data-name="Rectangle 19567" width="3.755" height="16.251" transform="translate(98.423 10.83)" fill="#1a1a1a"/>
        <path id="Path_83462" data-name="Path 83462" d="M215.369,33.213h-8.5a2.554,2.554,0,0,0,.736,1.746,2.246,2.246,0,0,0,1.592.6,1.975,1.975,0,0,0,1.955-1.186h4a5.488,5.488,0,0,1-1.109,2.174,5.555,5.555,0,0,1-2.009,1.515,6.452,6.452,0,0,1-2.7.549,6.567,6.567,0,0,1-3.206-.768,5.46,5.46,0,0,1-2.2-2.2,6.78,6.78,0,0,1-.791-3.338,6.855,6.855,0,0,1,.78-3.338,5.4,5.4,0,0,1,2.185-2.2,6.621,6.621,0,0,1,3.228-.768,6.553,6.553,0,0,1,3.163.747,5.357,5.357,0,0,1,2.163,2.13,6.468,6.468,0,0,1,.78,3.228,9.585,9.585,0,0,1-.066,1.1m-3.777-2.087a1.933,1.933,0,0,0-.659-1.537,2.428,2.428,0,0,0-1.647-.571,2.379,2.379,0,0,0-1.592.549,2.439,2.439,0,0,0-.8,1.559Z" transform="translate(-99.532 -11.358)" fill="#1a1a1a"/>
        <path id="Path_83463" data-name="Path 83463" d="M180.131,27.581l-3.855-7.522-3.326,1.7,3.862,7.538a2.055,2.055,0,0,1,.275,1.608,2.3,2.3,0,0,1-1.2,1.157,2.273,2.273,0,0,1-1.624.289,2.054,2.054,0,0,1-1.145-1.162l-3.863-7.538-3.326,1.705,3.855,7.523a5.559,5.559,0,0,0,2.092,2.329,4.921,4.921,0,0,0,2.527.692c.086,0,.173,0,.26-.006a7.305,7.305,0,0,0,5.082-2.6c.07-.089.138-.18.2-.27a4.873,4.873,0,0,0,.861-2.395,5.6,5.6,0,0,0-.679-3.046" transform="translate(-83.285 -8.759)" fill="#1a1a1a"/>
        <path id="Path_83464" data-name="Path 83464" d="M158.342,8.744a7.439,7.439,0,0,1-.885-3.244,4.809,4.809,0,0,1,.78-2.772A5.936,5.936,0,0,1,160.584.721,5.363,5.363,0,0,1,165,.3a6.367,6.367,0,0,1,3.378,3.262l3.37,6.639-2.163,1.1c-.563-1.084-1.524-2.93-2.339-4.469-.963-1.817-1.758-3.74-3.286-4.3a3.649,3.649,0,0,0-2.946.617c1.193-.3,2.831,1.774,3.54,2.895.528.834,2.382,4.378,3.294,6.136l-3.088,1.568-3.082,1.564Z" transform="translate(-79.584 0)" fill="#1a73e8"/>
      </g>
    </g>
  </g>
</svg>
