<svg xmlns="http://www.w3.org/2000/svg" width="21.119" height="13.501" viewBox="0 0 21.119 13.501">
  <path id="Union_2" data-name="Union 2" d="M4383.2,1889.5h-1.841q-1.657,0-3.313,0c-1.383,0-2.043-.793-2.045-2.443q0-1.308,0-2.617v-2.4q0-1.308,0-2.618c0-1.6.657-2.409,1.962-2.411q3.039-.006,6.076-.005h.5q1.968,0,3.936,0c1.251,0,1.933.817,1.937,2.314q.007,3.942,0,7.884c0,1.451-.7,2.29-1.9,2.3-.737,0-1.475,0-2.212,0Zm11.752-.425c-1.106-.8-2.2-1.626-3.312-2.421a1.151,1.151,0,0,1-.5-1.048q.023-2.37,0-4.74a1.1,1.1,0,0,1,.47-1c1.124-.808,2.233-1.643,3.354-2.455.663-.479,1.14-.158,1.145.768.008,1.682,0,3.365,0,5.047h0c0,1.683,0,3.365,0,5.048,0,.67-.228,1.034-.591,1.034A1.006,1.006,0,0,1,4394.953,1889.075Z" transform="translate(-4375.5 -1876.5)" fill="#6f6f91" stroke="rgba(0,0,0,0)" stroke-width="1"/>
</svg>
